<svg width="137" height="36" viewBox="0 0 137 36" fill="none" xmlns="http://www.w3.org/2000/svg">
<rect x="1" y="1" width="135" height="34" rx="14" fill="#252E54" stroke="white" stroke-width="2"/>
<path d="M18.0762 22V14.998H20.5566C23.0436 14.998 24.2871 16.1357 24.2871 18.4111C24.2871 19.5016 23.9469 20.3724 23.2666 21.0234C22.5895 21.6745 21.6862 22 20.5566 22H18.0762ZM19.6533 16.2822V20.7207H20.4346C21.1182 20.7207 21.6536 20.5156 22.041 20.1055C22.4316 19.6953 22.627 19.137 22.627 18.4307C22.627 17.7633 22.4333 17.2393 22.0459 16.8584C21.6618 16.4743 21.1214 16.2822 20.4248 16.2822H19.6533ZM34.3232 22H32.5117L31.4229 20.1982C31.3415 20.0615 31.2633 19.9395 31.1885 19.832C31.1136 19.7246 31.0371 19.6335 30.959 19.5586C30.8841 19.4805 30.8044 19.4219 30.7197 19.3828C30.6383 19.3405 30.5488 19.3193 30.4512 19.3193H30.0264V22H28.4492V14.998H30.9492C32.6484 14.998 33.498 15.6328 33.498 16.9023C33.498 17.1465 33.4606 17.3727 33.3857 17.5811C33.3109 17.7861 33.2051 17.9717 33.0684 18.1377C32.9316 18.3037 32.7656 18.4469 32.5703 18.5674C32.3783 18.6878 32.1634 18.7822 31.9258 18.8506V18.8701C32.0299 18.9027 32.1309 18.9564 32.2285 19.0312C32.3262 19.1029 32.4206 19.1875 32.5117 19.2852C32.6029 19.3828 32.6891 19.4886 32.7705 19.6025C32.8551 19.7132 32.9316 19.8223 33 19.9297L34.3232 22ZM30.0264 16.1797V18.1279H30.71C31.0485 18.1279 31.3203 18.0303 31.5254 17.835C31.7337 17.6364 31.8379 17.3906 31.8379 17.0977C31.8379 16.4857 31.4717 16.1797 30.7393 16.1797H30.0264ZM40.8438 22.1221C39.8411 22.1221 39.0241 21.7965 38.3926 21.1455C37.7611 20.4912 37.4453 19.64 37.4453 18.5918C37.4453 17.485 37.766 16.5898 38.4072 15.9062C39.0485 15.2227 39.8981 14.8809 40.9561 14.8809C41.9554 14.8809 42.7627 15.208 43.3779 15.8623C43.9964 16.5166 44.3057 17.3792 44.3057 18.4502C44.3057 19.5505 43.985 20.4375 43.3438 21.1113C42.7057 21.7852 41.8724 22.1221 40.8438 22.1221ZM40.9121 16.2383C40.3587 16.2383 39.9193 16.4466 39.5938 16.8633C39.2682 17.2767 39.1055 17.8252 39.1055 18.5088C39.1055 19.2021 39.2682 19.7507 39.5938 20.1543C39.9193 20.5579 40.3457 20.7598 40.873 20.7598C41.4167 20.7598 41.848 20.5645 42.167 20.1738C42.486 19.7799 42.6455 19.2347 42.6455 18.5381C42.6455 17.8122 42.4909 17.2474 42.1816 16.8438C41.8724 16.4401 41.4492 16.2383 40.9121 16.2383ZM50.0498 19.5879V22H48.4727V14.998H50.9434C52.7077 14.998 53.5898 15.7419 53.5898 17.2295C53.5898 17.9326 53.3359 18.5023 52.8281 18.9385C52.3236 19.3714 51.6481 19.5879 50.8018 19.5879H50.0498ZM50.0498 16.209V18.3916H50.6699C51.5098 18.3916 51.9297 18.0238 51.9297 17.2881C51.9297 16.5687 51.5098 16.209 50.6699 16.209H50.0498ZM57.6152 22V14.998H60.0957C62.5827 14.998 63.8262 16.1357 63.8262 18.4111C63.8262 19.5016 63.486 20.3724 62.8057 21.0234C62.1286 21.6745 61.2253 22 60.0957 22H57.6152ZM59.1924 16.2822V20.7207H59.9736C60.6572 20.7207 61.1927 20.5156 61.5801 20.1055C61.9707 19.6953 62.166 19.137 62.166 18.4307C62.166 17.7633 61.9723 17.2393 61.585 16.8584C61.2008 16.4743 60.6605 16.2822 59.9639 16.2822H59.1924ZM70.9473 22.1221C69.9447 22.1221 69.1276 21.7965 68.4961 21.1455C67.8646 20.4912 67.5488 19.64 67.5488 18.5918C67.5488 17.485 67.8695 16.5898 68.5107 15.9062C69.152 15.2227 70.0016 14.8809 71.0596 14.8809C72.0589 14.8809 72.8662 15.208 73.4814 15.8623C74.0999 16.5166 74.4092 17.3792 74.4092 18.4502C74.4092 19.5505 74.0885 20.4375 73.4473 21.1113C72.8092 21.7852 71.9759 22.1221 70.9473 22.1221ZM71.0156 16.2383C70.4622 16.2383 70.0228 16.4466 69.6973 16.8633C69.3717 17.2767 69.209 17.8252 69.209 18.5088C69.209 19.2021 69.3717 19.7507 69.6973 20.1543C70.0228 20.5579 70.4492 20.7598 70.9766 20.7598C71.5202 20.7598 71.9515 20.5645 72.2705 20.1738C72.5895 19.7799 72.749 19.2347 72.749 18.5381C72.749 17.8122 72.5944 17.2474 72.2852 16.8438C71.9759 16.4401 71.5527 16.2383 71.0156 16.2383ZM87.7363 14.998L85.8857 22H84.1377L82.9756 17.5078C82.9137 17.2734 82.8763 17.0114 82.8633 16.7217H82.8438C82.8145 17.0407 82.7721 17.3027 82.7168 17.5078L81.5254 22H79.7041L77.8633 14.998H79.5869L80.5732 19.6611C80.6156 19.8597 80.6465 20.1266 80.666 20.4619H80.6953C80.7083 20.2113 80.7555 19.9378 80.8369 19.6416L82.1064 14.998H83.7959L84.9434 19.7002C84.9857 19.8727 85.0231 20.1234 85.0557 20.4521H85.0752C85.0882 20.195 85.1224 19.9346 85.1777 19.6709L86.1445 14.998H87.7363ZM97.9238 22H96.332L93.4463 17.6006C93.277 17.3434 93.1598 17.1497 93.0947 17.0195H93.0752C93.1012 17.2669 93.1143 17.6445 93.1143 18.1523V22H91.625V14.998H93.3242L96.1025 19.2607C96.2295 19.4528 96.3467 19.6432 96.4541 19.832H96.4736C96.4476 19.6693 96.4346 19.3486 96.4346 18.8701V14.998H97.9238V22Z" fill="white"/>
<path d="M114.806 15.0182L117.64 19.0338C117.815 19.2822 117.638 19.625 117.334 19.625L111.666 19.625C111.362 19.625 111.185 19.2822 111.36 19.0338L114.194 15.0182C114.343 14.8065 114.657 14.8065 114.806 15.0182Z" fill="white"/>
<path d="M114.806 15.0182L117.64 19.0338C117.815 19.2822 117.638 19.625 117.334 19.625L111.666 19.625C111.362 19.625 111.185 19.2822 111.36 19.0338L114.194 15.0182C114.343 14.8065 114.657 14.8065 114.806 15.0182Z" stroke="url(#paint0_linear_572_33821)" stroke-width="1.25"/>
<path d="M114.806 15.0182L117.64 19.0338C117.815 19.2822 117.638 19.625 117.334 19.625L111.666 19.625C111.362 19.625 111.185 19.2822 111.36 19.0338L114.194 15.0182C114.343 14.8065 114.657 14.8065 114.806 15.0182Z" stroke="white" stroke-width="1.25"/>
<defs>
<linearGradient id="paint0_linear_572_33821" x1="189.667" y1="18" x2="82.9667" y2="18" gradientUnits="userSpaceOnUse">
<stop stop-color="#F094BB"/>
<stop offset="0.255983" stop-color="#A05BD5"/>
<stop offset="1" stop-color="#0078D4"/>
</linearGradient>
</defs>
</svg>
