<svg width="35" height="35" viewBox="0 0 35 35" fill="none" xmlns="http://www.w3.org/2000/svg">
<rect width="35" height="35" rx="17.5" fill="#1197D1"/>
<g clip-path="url(#clip0_544_38660)">
<path d="M13.2695 25.5C13.1416 25.462 13.0092 25.4365 12.8865 25.3844C12.3177 25.1377 12.0127 24.7168 12.0058 24.1329C11.9949 23.1494 12.0027 22.166 12.0027 21.181V11.4686C12.0027 10.5714 12.6131 10.0004 13.5715 10H20.7647C21.7243 10 22.333 10.5697 22.3334 11.4678V23.997C22.3334 24.8146 21.9408 25.2853 21.094 25.4846C21.084 25.4886 21.0747 25.4938 21.0662 25.5H13.2695ZM12.9771 17.2417V24.0443C12.9771 24.4204 13.1594 24.5914 13.5594 24.5914H20.7686C21.1794 24.5914 21.3586 24.4228 21.3586 24.0366V17.2433L12.9771 17.2417ZM21.3586 16.321V16.1592C21.3586 14.5909 21.3586 13.0222 21.3586 11.4533C21.3586 11.0796 21.1755 10.9094 20.7738 10.9094H13.5646C13.1607 10.9094 12.9776 11.0784 12.9776 11.4513C12.9776 13.0196 12.9776 14.5882 12.9776 16.1568V16.321H21.3586Z" fill="white"/>
<path d="M15.0564 20.1827C15.0564 20.4896 15.0564 20.7969 15.0564 21.1038C15.0564 21.3937 14.8465 21.5987 14.5627 21.5947C14.279 21.5906 14.0855 21.3885 14.0833 21.1058C14.0816 20.4815 14.0816 19.8571 14.0833 19.2328C14.0833 18.953 14.2911 18.7504 14.5688 18.75C14.8465 18.7496 15.0534 18.9498 15.0564 19.2328C15.0586 19.5482 15.0564 19.8652 15.0564 20.1827Z" fill="white"/>
<path d="M15.0556 13.8743C15.0556 14.0361 15.0595 14.1978 15.0556 14.3596C15.0571 14.4202 15.0455 14.4805 15.0215 14.5369C14.9976 14.5933 14.9617 14.6446 14.9161 14.6878C14.8705 14.7311 14.816 14.7653 14.756 14.7886C14.6959 14.8119 14.6314 14.8236 14.5663 14.8233C14.5013 14.8229 14.4369 14.8103 14.3772 14.7864C14.3174 14.7624 14.2634 14.7275 14.2184 14.6838C14.1733 14.64 14.1382 14.5883 14.115 14.5316C14.0918 14.4749 14.081 14.4145 14.0833 14.3539C14.079 14.0369 14.079 13.72 14.0833 13.4033C14.0868 13.1368 14.3003 12.9378 14.5723 12.9395C14.8443 12.9411 15.0495 13.1416 15.056 13.4085C15.0582 13.5626 15.0556 13.7187 15.0556 13.8743Z" fill="white"/>
</g>
<defs>
<clipPath id="clip0_544_38660">
<rect width="10.3333" height="15.5" fill="white" transform="translate(12 10)"/>
</clipPath>
</defs>
</svg>
