<svg width="34" height="52" viewBox="0 0 34 52" fill="none" xmlns="http://www.w3.org/2000/svg">
<rect width="34" height="52" rx="15" fill="#FF9950" fill-opacity="0.1"/>
<g clip-path="url(#clip0_901_61085)">
<path d="M13.2584 37.9999C12.6926 37.8561 12.3283 37.4857 12.0902 36.972C12.0407 36.8657 11.9723 36.77 11.9198 36.6644C11.76 36.296 11.4684 36 11.1017 35.8337C10.408 35.5061 10.0655 34.8879 10.0113 34.1224C10.0031 34.0132 10.0036 33.9034 10.0036 33.7942C10.0036 28.8581 10.0025 23.9222 10.0001 18.9865C9.99367 18.7057 10.0748 18.4299 10.2323 18.1969C10.866 17.2488 11.4866 16.2913 12.1479 15.2821C12.0993 15.2658 12.0536 15.2421 12.0124 15.2117C11.7978 14.9991 11.7324 14.742 11.8356 14.4608C11.944 14.1673 12.1733 14.0228 12.4839 14.0017C12.5234 14.0017 12.5623 14.0017 12.6018 14.0017C15.7379 14.0017 18.8744 14.0017 22.0113 14.0017C22.5553 14.0017 22.9042 14.354 22.8022 14.8277C22.7645 15.0038 22.6295 15.1623 22.5193 15.3655L23.2355 16.4545C23.6292 17.0556 24.0353 17.6498 24.4108 18.2627C24.5287 18.4524 24.595 18.6695 24.6029 18.8926C24.6135 23.8991 24.6159 28.9055 24.61 33.9116C24.61 34.9284 24.122 35.6276 23.1795 36.0045C23.0959 36.0405 23.0252 36.1009 22.9767 36.1777C22.8136 36.435 22.6635 36.7003 22.527 36.9726C22.28 37.4827 21.9222 37.8532 21.3564 37.9999H13.2584ZM11.4153 19.3053V19.5566C11.4153 24.329 11.4153 29.1009 11.4153 33.8723C11.4153 34.4593 11.6752 34.7171 12.2588 34.7171H22.3278C22.9431 34.7171 23.196 34.4652 23.196 33.85C23.196 29.0857 23.196 24.3216 23.196 19.5577V19.3053H11.4153ZM22.4804 17.8805C21.9435 17.065 21.4324 16.2772 20.9102 15.4993C20.8713 15.4406 20.754 15.4107 20.6745 15.4107C18.4347 15.406 16.189 15.4107 13.9463 15.403C13.8855 15.3983 13.8247 15.4114 13.7713 15.4406C13.7179 15.4698 13.6743 15.5139 13.6457 15.5674C13.2266 16.2173 12.7998 16.8625 12.3761 17.5095C12.3006 17.6269 12.2275 17.7413 12.1403 17.8805H22.4804ZM13.2667 36.1278C13.4435 36.5939 13.4435 36.5939 13.8979 36.5939H20.7853C21.1472 36.5939 21.2568 36.5006 21.3252 36.1278H13.2667Z" fill="#FF9950"/>
</g>
<defs>
<clipPath id="clip0_901_61085">
<rect width="14.6087" height="24" fill="white" transform="translate(10 14)"/>
</clipPath>
</defs>
</svg>
