<svg width="24" height="14" viewBox="0 0 24 14" fill="none" xmlns="http://www.w3.org/2000/svg">
<g clip-path="url(#clip0_545_33914)">
<path d="M12.8736 5.25037L18.997 11.3384C18.9582 11.3822 18.9057 11.4485 18.8461 11.5084C18.5042 11.8517 18.1614 12.1925 17.8177 12.5308C17.6363 12.7104 17.5133 12.9048 17.613 13.1746C17.7128 13.4443 17.9025 13.5274 18.1713 13.5538C19.6065 13.6954 21.0404 13.848 22.4755 13.9955C22.8706 14.036 23.1452 13.8023 23.1154 13.407C23.0629 12.6988 22.9859 11.9867 22.9101 11.2772C22.8343 10.5677 22.7514 9.8608 22.6854 9.1526C22.6601 8.87704 22.5908 8.63753 22.3084 8.53839C22.0261 8.43924 21.8124 8.54547 21.6168 8.75278C21.302 9.08628 20.9737 9.40626 20.631 9.752C20.5365 9.66637 20.4588 9.6007 20.3869 9.52988C18.2153 7.37177 16.0334 5.22397 13.8813 3.04655C13.3567 2.51604 12.5439 2.49221 12.009 3.05041C10.8944 4.2138 9.7325 5.33084 8.58941 6.46655C8.52465 6.53415 8.45082 6.59854 8.36662 6.67837C8.27984 6.59982 8.20147 6.53415 8.12894 6.4614C6.09577 4.43807 4.06238 2.41538 2.02878 0.393339C1.68489 0.0501798 1.28723 -0.0875988 0.818338 0.0637003C0.645024 0.120582 0.488527 0.21914 0.362751 0.350618C0.236974 0.482096 0.145813 0.642424 0.0973676 0.817355C0.0489219 0.992286 0.0446912 1.1764 0.0850516 1.35335C0.125412 1.5303 0.209114 1.6946 0.32872 1.83165C0.38636 1.89603 0.451124 1.96041 0.513946 2.02479C2.82344 4.31639 5.13143 6.6097 7.4379 8.90472C8.05057 9.51314 8.67296 9.51185 9.28951 8.89893C10.4276 7.7688 11.5645 6.63824 12.7 5.50725C12.7665 5.42772 12.8247 5.34164 12.8736 5.25037V5.25037Z" fill="#FF1C1C"/>
</g>
<defs>
<clipPath id="clip0_545_33914">
<rect width="23.06" height="14" fill="white" transform="matrix(1 8.74228e-08 8.74228e-08 -1 0.0585938 14)"/>
</clipPath>
</defs>
</svg>
