<svg width="11" height="8" viewBox="0 0 11 8" fill="none" xmlns="http://www.w3.org/2000/svg">
<g clip-path="url(#clip0_339_30864)">
<path d="M6.11342 3.12518L9.03442 6.16919C9.01588 6.19108 8.99086 6.22424 8.96244 6.25418C8.79932 6.42586 8.63579 6.59626 8.47184 6.76538C8.38534 6.85519 8.32664 6.95241 8.37422 7.08729C8.4218 7.22217 8.51232 7.2637 8.64052 7.2769C9.32513 7.34772 10.0091 7.42401 10.6937 7.49773C10.8822 7.51801 11.0132 7.40115 10.9989 7.2035C10.9739 6.8494 10.9372 6.49336 10.901 6.13861C10.8649 5.78386 10.8253 5.4304 10.7938 5.0763C10.7818 4.93852 10.7487 4.81877 10.614 4.76919C10.4793 4.71962 10.3774 4.77273 10.2841 4.87639C10.1339 5.04314 9.97729 5.20313 9.81387 5.376C9.76876 5.33318 9.73169 5.30035 9.6974 5.26494C8.66153 4.18589 7.62072 3.11198 6.59413 2.02327C6.34389 1.75802 5.95617 1.74611 5.70099 2.02521C5.16931 2.6069 4.61508 3.16542 4.06981 3.73328C4.03891 3.76708 4.00369 3.79927 3.96353 3.83919C3.92213 3.79991 3.88475 3.76708 3.85015 3.7307C2.8803 2.71903 1.91034 1.70769 0.940279 0.69667C0.776234 0.52509 0.586547 0.456201 0.362877 0.53185C0.280203 0.560291 0.205551 0.60957 0.145554 0.675309C0.0855562 0.741048 0.042071 0.821212 0.0189616 0.908677C-0.00414779 0.996143 -0.00616587 1.0882 0.0130867 1.17668C0.0323393 1.26515 0.0722663 1.3473 0.12932 1.41582C0.156816 1.44801 0.187709 1.48021 0.217676 1.5124C1.31934 2.65819 2.42029 3.80485 3.52052 4.95236C3.81277 5.25657 4.10966 5.25592 4.40377 4.94946C4.94667 4.3844 5.48896 3.81912 6.03063 3.25363C6.06235 3.21386 6.09009 3.17082 6.11342 3.12518V3.12518Z" fill="#FF1C1C"/>
</g>
<defs>
<clipPath id="clip0_339_30864">
<rect width="11" height="7" fill="white" transform="matrix(1 8.74228e-08 8.74228e-08 -1 0 7.5)"/>
</clipPath>
</defs>
</svg>
