<svg width="24" height="14" viewBox="0 0 24 14" fill="none" xmlns="http://www.w3.org/2000/svg">
<g clip-path="url(#clip0_337_30306)">
<path d="M12.8143 8.74964L18.9375 2.66162C18.8986 2.61784 18.8462 2.55152 18.7866 2.49165C18.4447 2.14827 18.1019 1.80747 17.7582 1.46925C17.5769 1.28962 17.4538 1.09519 17.5535 0.825424C17.6533 0.555661 17.843 0.472607 18.1118 0.44621C19.5469 0.304568 20.9807 0.151982 22.4158 0.00454547C22.8108 -0.0360156 23.0854 0.197693 23.0556 0.593003C23.0032 1.30121 22.9261 2.01328 22.8503 2.72278C22.7746 3.43228 22.6917 4.1392 22.6256 4.84741C22.6004 5.12296 22.5311 5.36247 22.2487 5.46162C21.9664 5.56077 21.7526 5.45453 21.5571 5.24722C21.2423 4.91372 20.914 4.59374 20.5714 4.248C20.4769 4.33363 20.3991 4.3993 20.3273 4.47012C18.1558 6.62823 15.974 8.77603 13.822 10.9535C13.2974 11.484 12.4847 11.5078 11.9498 10.9496C10.8352 9.7862 9.67342 8.66916 8.53038 7.53345C8.46562 7.46585 8.39179 7.40146 8.3076 7.32163C8.22082 7.40018 8.14246 7.46585 8.06993 7.5386C6.03687 9.56193 4.00359 11.5846 1.97009 13.6067C1.62621 13.9498 1.22857 14.0876 0.759705 13.9363C0.586399 13.8794 0.42991 13.7809 0.30414 13.6494C0.17837 13.5179 0.0872139 13.3576 0.0387707 13.1826C-0.00967259 13.0077 -0.013903 12.8236 0.0264554 12.6466C0.0668137 12.4697 0.150511 12.3054 0.270111 12.1684C0.327749 12.104 0.39251 12.0396 0.455328 11.9752C2.76471 9.68361 5.07257 7.39031 7.37893 5.09528C7.99157 4.48686 8.61392 4.48815 9.23045 5.10107C10.3685 6.2312 11.5053 7.36176 12.6408 8.49275C12.7073 8.57228 12.7654 8.65836 12.8143 8.74964Z" fill="#52FF8D"/>
</g>
<defs>
<clipPath id="clip0_337_30306">
<rect width="23.0588" height="14" fill="white"/>
</clipPath>
</defs>
</svg>
