<svg width="34" height="52" viewBox="0 0 34 52" fill="none" xmlns="http://www.w3.org/2000/svg">
<rect width="34" height="52" rx="15" fill="#52FF8D" fill-opacity="0.1"/>
<path d="M18.6078 35.608C18.6078 36.061 18.6128 36.473 18.6078 36.8849C18.5958 37.6095 18.0728 38.1427 17.3897 38.1327C16.7236 38.1227 16.2195 37.5925 16.2095 36.8849C16.2035 36.4609 16.2095 36.036 16.2095 35.601C15.089 35.3366 14.08 34.725 13.3262 33.8531C12.5031 32.9143 12.0382 31.7139 12.014 30.4645C11.991 29.7018 12.483 29.1486 13.1791 29.1325C13.8752 29.1165 14.3793 29.6336 14.4113 30.4054C14.4208 30.8029 14.5089 31.1945 14.6704 31.5577C14.832 31.9209 15.0638 32.2483 15.3525 32.5211C15.6412 32.7939 15.981 33.0066 16.3522 33.1469C16.7235 33.2871 17.1188 33.3522 17.5154 33.3384C17.9119 33.3245 18.3017 33.232 18.6624 33.0662C19.023 32.9003 19.3472 32.6644 19.6162 32.3722C19.8852 32.0799 20.0937 31.7371 20.2297 31.3635C20.3656 30.99 20.4262 30.5931 20.4081 30.1959C20.3501 28.6274 19.0569 27.3746 17.4517 27.3315C15.2294 27.2724 13.5652 26.2721 12.5671 24.2917C11.0519 21.295 12.7071 17.6488 15.9405 16.7468C16.0235 16.7227 16.1035 16.6897 16.2075 16.6526C16.2075 16.2286 16.2025 15.8047 16.2075 15.3807C16.2185 14.6541 16.7376 14.1239 17.4237 14.1329C18.0888 14.1419 18.5948 14.6701 18.6058 15.3787C18.6118 15.8027 18.6058 16.2266 18.6058 16.6616C19.6147 16.901 20.5352 17.4223 21.2602 18.165C22.2215 19.131 22.7758 20.4302 22.8084 21.7941C22.8324 22.5538 22.3363 23.111 21.6442 23.1281C20.9522 23.1451 20.4441 22.6269 20.4111 21.8542C20.4003 21.4528 20.3094 21.0576 20.1437 20.692C19.9781 20.3264 19.741 19.9977 19.4465 19.7254C19.152 19.4531 18.8061 19.2427 18.4291 19.1065C18.0522 18.9704 17.6518 18.9112 17.2517 18.9327C15.6285 19.0058 14.3573 20.41 14.4163 22.0637C14.4723 23.6292 15.7675 24.892 17.3717 24.9271C19.39 24.9722 20.9672 25.8291 22.0253 27.54C23.8655 30.5246 22.3473 34.4685 18.9909 35.4958C18.8679 35.5318 18.7489 35.5659 18.6078 35.608Z" fill="#52FF8D"/>
</svg>
