<svg width="31" height="31" viewBox="0 0 31 31" fill="none" xmlns="http://www.w3.org/2000/svg">
<circle cx="15.5" cy="15.5" r="15.5" fill="#0078D4"/>
<g clip-path="url(#clip0_544_38267)">
<path d="M11.3433 24.7999C11.1998 24.7543 11.0514 24.7238 10.9137 24.6612C10.276 24.3652 9.93398 23.8601 9.92619 23.1594C9.91403 21.9793 9.92279 20.7992 9.92279 19.6172V7.96232C9.92279 6.88559 10.6073 6.20044 11.6819 6.19995H19.7477C20.8237 6.19995 21.5063 6.88365 21.5068 7.96135V22.9963C21.5068 23.9775 21.0665 24.5423 20.1169 24.7815C20.1058 24.7863 20.0953 24.7925 20.0858 24.7999H11.3433ZM11.0154 14.89V23.0531C11.0154 23.5044 11.2197 23.7096 11.6683 23.7096H19.752C20.2127 23.7096 20.4136 23.5073 20.4136 23.0439V14.892L11.0154 14.89ZM20.4136 13.7851V13.591C20.4136 11.709 20.4136 9.82659 20.4136 7.94388C20.4136 7.49553 20.2084 7.29124 19.7579 7.29124H11.6741C11.2212 7.29124 11.0159 7.49407 11.0159 7.94146C11.0159 9.82352 11.0159 11.7057 11.0159 13.5881V13.7851H20.4136Z" fill="white"/>
<path d="M13.3467 18.4186C13.3467 18.7869 13.3467 19.1557 13.3467 19.524C13.3467 19.8719 13.1113 20.1179 12.7931 20.1131C12.4749 20.1082 12.258 19.8656 12.2555 19.5264C12.2536 18.7772 12.2536 18.028 12.2555 17.2788C12.2555 16.9431 12.4886 16.6999 12.7999 16.6995C13.1113 16.699 13.3433 16.9392 13.3467 17.2788C13.3491 17.6573 13.3467 18.0377 13.3467 18.4186Z" fill="white"/>
<path d="M13.3467 10.8484C13.3467 11.0425 13.3511 11.2366 13.3467 11.4307C13.3484 11.5035 13.3354 11.5758 13.3085 11.6435C13.2817 11.7111 13.2415 11.7727 13.1903 11.8246C13.1392 11.8765 13.0781 11.9176 13.0107 11.9455C12.9434 11.9734 12.8711 11.9876 12.7981 11.9871C12.7252 11.9867 12.653 11.9716 12.586 11.9429C12.519 11.9141 12.4584 11.8722 12.4079 11.8197C12.3574 11.7672 12.318 11.7051 12.292 11.6371C12.266 11.5691 12.2539 11.4966 12.2565 11.4239C12.2517 11.0435 12.2517 10.6632 12.2565 10.2831C12.2604 9.96337 12.4998 9.72463 12.8048 9.72657C13.1098 9.72852 13.3399 9.96919 13.3472 10.2894C13.3496 10.4743 13.3467 10.6616 13.3467 10.8484Z" fill="white"/>
</g>
<defs>
<clipPath id="clip0_544_38267">
<rect width="11.5869" height="18.6" fill="white" transform="translate(9.91998 6.19995)"/>
</clipPath>
</defs>
</svg>
