<svg width="275" height="86" viewBox="0 0 275 86" fill="none" xmlns="http://www.w3.org/2000/svg">
<g filter="url(#filter0_d_351_30021)">
<rect x="15" y="15" width="245" height="56" rx="28" fill="#0078D4"/>
<rect x="16.5" y="16.5" width="242" height="53" rx="26.5" stroke="#0078D4" stroke-width="3"/>
</g>
<path d="M66.7026 40.5576V47H65.6831V41.8057C65.4985 41.9375 65.2993 42.0503 65.0854 42.144C64.8745 42.2349 64.6328 42.3154 64.3604 42.3857V41.5156C64.5303 41.46 64.6943 41.4014 64.8525 41.3398C65.0107 41.2783 65.166 41.2095 65.3184 41.1333C65.4736 41.0571 65.6289 40.9722 65.7842 40.8784C65.9424 40.7847 66.105 40.6777 66.272 40.5576H66.7026ZM68.471 45.2422C68.471 45.0605 68.493 44.8848 68.5369 44.7148C68.5838 44.5449 68.6526 44.3882 68.7435 44.2446C68.8343 44.1011 68.9485 43.9722 69.0862 43.8579C69.2239 43.7437 69.3851 43.6514 69.5696 43.5811C69.2972 43.4287 69.0804 43.2339 68.9192 42.9966C68.7581 42.7563 68.6775 42.4912 68.6775 42.2012C68.6775 41.9697 68.7244 41.7559 68.8182 41.5596C68.9148 41.3633 69.0467 41.1934 69.2137 41.0498C69.3836 40.9062 69.5828 40.7949 69.8113 40.7158C70.0398 40.6338 70.2889 40.5928 70.5584 40.5928C70.8309 40.5928 71.0813 40.6338 71.3099 40.7158C71.5413 40.7979 71.7405 40.9106 71.9075 41.0542C72.0774 41.1978 72.2093 41.3677 72.303 41.564C72.3968 41.7603 72.4437 41.9727 72.4437 42.2012C72.4437 42.4912 72.3631 42.7563 72.202 42.9966C72.0408 43.2339 71.827 43.4287 71.5604 43.5811C71.742 43.6514 71.9017 43.7437 72.0394 43.8579C72.18 43.9692 72.2972 44.0967 72.3909 44.2402C72.4847 44.3838 72.555 44.5405 72.6019 44.7104C72.6487 44.8804 72.6722 45.0576 72.6722 45.2422C72.6722 45.5176 72.6209 45.7695 72.5184 45.998C72.4158 46.2266 72.2723 46.4229 72.0877 46.5869C71.9031 46.748 71.6819 46.874 71.4241 46.9648C71.1663 47.0557 70.8821 47.1011 70.5716 47.1011C70.264 47.1011 69.9812 47.0557 69.7234 46.9648C69.4686 46.874 69.2474 46.748 69.0599 46.5869C68.8753 46.4229 68.7303 46.2266 68.6248 45.998C68.5223 45.7695 68.471 45.5176 68.471 45.2422ZM69.4642 45.1543C69.4642 45.333 69.4905 45.4941 69.5433 45.6377C69.596 45.7812 69.6707 45.9028 69.7674 46.0024C69.8641 46.1021 69.9798 46.1782 70.1146 46.231C70.2522 46.2837 70.4046 46.3101 70.5716 46.3101C70.7327 46.3101 70.8807 46.2837 71.0154 46.231C71.1502 46.1753 71.2659 46.0977 71.3626 45.998C71.4622 45.8955 71.5398 45.7739 71.5955 45.6333C71.6512 45.4897 71.679 45.3301 71.679 45.1543C71.679 44.9932 71.6526 44.8423 71.5999 44.7017C71.5472 44.5581 71.4725 44.4336 71.3758 44.3281C71.2791 44.2227 71.1619 44.1392 71.0242 44.0776C70.8895 44.0161 70.7386 43.9854 70.5716 43.9854C70.4134 43.9854 70.2654 44.0146 70.1277 44.0732C69.993 44.1289 69.8758 44.2095 69.7762 44.3149C69.6795 44.4175 69.6033 44.5405 69.5477 44.6841C69.492 44.8276 69.4642 44.9844 69.4642 45.1543ZM69.6795 42.3066C69.6795 42.4385 69.7029 42.5615 69.7498 42.6758C69.7967 42.7871 69.8597 42.8853 69.9388 42.9702C70.0179 43.0522 70.1102 43.1167 70.2156 43.1636C70.324 43.2104 70.4397 43.2339 70.5628 43.2339C70.6858 43.2339 70.8001 43.2104 70.9056 43.1636C71.014 43.1138 71.1077 43.0479 71.1868 42.9658C71.2688 42.8809 71.3333 42.7827 71.3802 42.6714C71.4271 42.5571 71.4505 42.4355 71.4505 42.3066C71.4505 42.1748 71.4271 42.0518 71.3802 41.9375C71.3362 41.8232 71.2747 41.7251 71.1956 41.6431C71.1165 41.561 71.0228 41.4966 70.9144 41.4497C70.806 41.4028 70.6888 41.3794 70.5628 41.3794C70.431 41.3794 70.3108 41.4043 70.2024 41.4541C70.094 41.501 70.0003 41.5669 69.9212 41.6519C69.845 41.7368 69.785 41.8364 69.741 41.9507C69.7 42.062 69.6795 42.1807 69.6795 42.3066ZM77.9078 47H73.9527V46.5122C73.9527 46.313 73.9806 46.127 74.0362 45.9541C74.0919 45.7783 74.1666 45.6143 74.2604 45.4619C74.3541 45.3066 74.464 45.1616 74.5899 45.0269C74.7159 44.8892 74.8507 44.7573 74.9942 44.6313C75.1378 44.5024 75.2843 44.3794 75.4337 44.2622C75.5831 44.1421 75.7296 44.022 75.8731 43.9019C76.0079 43.7876 76.131 43.6763 76.2423 43.5679C76.3536 43.4565 76.4488 43.3423 76.5279 43.2251C76.607 43.1079 76.6686 42.9849 76.7125 42.856C76.7564 42.7241 76.7784 42.582 76.7784 42.4297C76.7784 42.2627 76.7521 42.1177 76.6993 41.9946C76.6495 41.8687 76.5777 41.7646 76.484 41.6826C76.3932 41.5977 76.2848 41.5347 76.1588 41.4937C76.0328 41.4497 75.8951 41.4277 75.7457 41.4277C75.4879 41.4277 75.2257 41.4878 74.9591 41.6079C74.6925 41.728 74.4361 41.9082 74.19 42.1484V41.1685C74.3189 41.0718 74.4493 40.9883 74.5812 40.918C74.713 40.8447 74.8492 40.7847 74.9898 40.7378C75.1305 40.688 75.2784 40.6514 75.4337 40.6279C75.589 40.6045 75.7545 40.5928 75.9303 40.5928C76.2145 40.5928 76.4723 40.6309 76.7037 40.707C76.9352 40.7803 77.1329 40.8901 77.297 41.0366C77.461 41.1802 77.587 41.3604 77.6749 41.5771C77.7657 41.7939 77.8111 42.043 77.8111 42.3242C77.8111 42.5791 77.7789 42.8091 77.7145 43.0142C77.6529 43.2163 77.5636 43.4053 77.4464 43.5811C77.3321 43.7568 77.193 43.9238 77.0289 44.082C76.8648 44.2402 76.6817 44.4028 76.4796 44.5698C76.3097 44.7075 76.1397 44.8423 75.9698 44.9741C75.8028 45.103 75.652 45.2305 75.5172 45.3564C75.3824 45.4795 75.2726 45.604 75.1876 45.73C75.1056 45.853 75.0646 45.9775 75.0646 46.1035V46.1255H77.9078V47ZM83.4906 41.208C83.227 41.6914 82.9779 42.1704 82.7436 42.645C82.5092 43.1167 82.2968 43.5913 82.1063 44.0688C81.9159 44.5464 81.7504 45.0283 81.6098 45.5146C81.4691 45.998 81.3607 46.4932 81.2846 47H80.2167C80.287 46.5488 80.3866 46.0991 80.5155 45.6509C80.6474 45.1997 80.8012 44.75 80.977 44.3018C81.1527 43.8506 81.349 43.3979 81.5658 42.9438C81.7855 42.4897 82.0185 42.0312 82.2646 41.5684H79.2807V40.6982H83.4906V41.208ZM88.3176 40.6982V44.7676H89.2536V45.6157H88.3176V47H87.3288V45.6157H84.4768V44.7588C84.7346 44.4688 84.9982 44.1553 85.2678 43.8184C85.5402 43.4785 85.801 43.1328 86.05 42.7812C86.302 42.4268 86.5349 42.0723 86.7487 41.7178C86.9626 41.3633 87.1428 41.0234 87.2893 40.6982H88.3176ZM87.3288 44.7676V42.1221C87.0095 42.6963 86.6931 43.1973 86.3796 43.625C86.069 44.0527 85.7775 44.4336 85.5051 44.7676H87.3288ZM98.9339 47H97.7913L94.7811 42.3682C94.7049 42.251 94.6419 42.1294 94.5921 42.0034H94.5657C94.5892 42.1382 94.6009 42.4268 94.6009 42.8691V47H93.5901V40.6982H94.8074L97.7166 45.2202C97.8396 45.4077 97.9188 45.5366 97.9539 45.6069H97.9715C97.9422 45.4399 97.9275 45.1572 97.9275 44.7588V40.6982H98.9339V47ZM104.486 47H100.948V40.6982H104.345V41.5859H101.994V43.3701H104.161V44.2534H101.994V46.1167H104.486V47ZM112.593 47H108.638V46.5122C108.638 46.313 108.666 46.127 108.721 45.9541C108.777 45.7783 108.852 45.6143 108.946 45.4619C109.039 45.3066 109.149 45.1616 109.275 45.0269C109.401 44.8892 109.536 44.7573 109.679 44.6313C109.823 44.5024 109.969 44.3794 110.119 44.2622C110.268 44.1421 110.415 44.022 110.558 43.9019C110.693 43.7876 110.816 43.6763 110.927 43.5679C111.039 43.4565 111.134 43.3423 111.213 43.2251C111.292 43.1079 111.354 42.9849 111.398 42.856C111.442 42.7241 111.464 42.582 111.464 42.4297C111.464 42.2627 111.437 42.1177 111.384 41.9946C111.335 41.8687 111.263 41.7646 111.169 41.6826C111.078 41.5977 110.97 41.5347 110.844 41.4937C110.718 41.4497 110.58 41.4277 110.431 41.4277C110.173 41.4277 109.911 41.4878 109.644 41.6079C109.378 41.728 109.121 41.9082 108.875 42.1484V41.1685C109.004 41.0718 109.134 40.9883 109.266 40.918C109.398 40.8447 109.534 40.7847 109.675 40.7378C109.816 40.688 109.964 40.6514 110.119 40.6279C110.274 40.6045 110.44 40.5928 110.615 40.5928C110.9 40.5928 111.157 40.6309 111.389 40.707C111.62 40.7803 111.818 40.8901 111.982 41.0366C112.146 41.1802 112.272 41.3604 112.36 41.5771C112.451 41.7939 112.496 42.043 112.496 42.3242C112.496 42.5791 112.464 42.8091 112.4 43.0142C112.338 43.2163 112.249 43.4053 112.132 43.5811C112.017 43.7568 111.878 43.9238 111.714 44.082C111.55 44.2402 111.367 44.4028 111.165 44.5698C110.995 44.7075 110.825 44.8423 110.655 44.9741C110.488 45.103 110.337 45.2305 110.202 45.3564C110.068 45.4795 109.958 45.604 109.873 45.73C109.791 45.853 109.75 45.9775 109.75 46.1035V46.1255H112.593V47ZM114.058 45.2422C114.058 45.0605 114.08 44.8848 114.124 44.7148C114.171 44.5449 114.24 44.3882 114.331 44.2446C114.421 44.1011 114.536 43.9722 114.673 43.8579C114.811 43.7437 114.972 43.6514 115.157 43.5811C114.884 43.4287 114.667 43.2339 114.506 42.9966C114.345 42.7563 114.265 42.4912 114.265 42.2012C114.265 41.9697 114.312 41.7559 114.405 41.5596C114.502 41.3633 114.634 41.1934 114.801 41.0498C114.971 40.9062 115.17 40.7949 115.398 40.7158C115.627 40.6338 115.876 40.5928 116.146 40.5928C116.418 40.5928 116.668 40.6338 116.897 40.7158C117.128 40.7979 117.328 40.9106 117.495 41.0542C117.665 41.1978 117.796 41.3677 117.89 41.564C117.984 41.7603 118.031 41.9727 118.031 42.2012C118.031 42.4912 117.95 42.7563 117.789 42.9966C117.628 43.2339 117.414 43.4287 117.147 43.5811C117.329 43.6514 117.489 43.7437 117.626 43.8579C117.767 43.9692 117.884 44.0967 117.978 44.2402C118.072 44.3838 118.142 44.5405 118.189 44.7104C118.236 44.8804 118.259 45.0576 118.259 45.2422C118.259 45.5176 118.208 45.7695 118.105 45.998C118.003 46.2266 117.859 46.4229 117.675 46.5869C117.49 46.748 117.269 46.874 117.011 46.9648C116.753 47.0557 116.469 47.1011 116.159 47.1011C115.851 47.1011 115.568 47.0557 115.311 46.9648C115.056 46.874 114.834 46.748 114.647 46.5869C114.462 46.4229 114.317 46.2266 114.212 45.998C114.109 45.7695 114.058 45.5176 114.058 45.2422ZM115.051 45.1543C115.051 45.333 115.078 45.4941 115.13 45.6377C115.183 45.7812 115.258 45.9028 115.354 46.0024C115.451 46.1021 115.567 46.1782 115.702 46.231C115.839 46.2837 115.992 46.3101 116.159 46.3101C116.32 46.3101 116.468 46.2837 116.603 46.231C116.737 46.1753 116.853 46.0977 116.95 45.998C117.049 45.8955 117.127 45.7739 117.183 45.6333C117.238 45.4897 117.266 45.3301 117.266 45.1543C117.266 44.9932 117.24 44.8423 117.187 44.7017C117.134 44.5581 117.06 44.4336 116.963 44.3281C116.866 44.2227 116.749 44.1392 116.611 44.0776C116.477 44.0161 116.326 43.9854 116.159 43.9854C116 43.9854 115.853 44.0146 115.715 44.0732C115.58 44.1289 115.463 44.2095 115.363 44.3149C115.267 44.4175 115.19 44.5405 115.135 44.6841C115.079 44.8276 115.051 44.9844 115.051 45.1543ZM115.267 42.3066C115.267 42.4385 115.29 42.5615 115.337 42.6758C115.384 42.7871 115.447 42.8853 115.526 42.9702C115.605 43.0522 115.697 43.1167 115.803 43.1636C115.911 43.2104 116.027 43.2339 116.15 43.2339C116.273 43.2339 116.387 43.2104 116.493 43.1636C116.601 43.1138 116.695 43.0479 116.774 42.9658C116.856 42.8809 116.92 42.7827 116.967 42.6714C117.014 42.5571 117.038 42.4355 117.038 42.3066C117.038 42.1748 117.014 42.0518 116.967 41.9375C116.923 41.8232 116.862 41.7251 116.783 41.6431C116.704 41.561 116.61 41.4966 116.501 41.4497C116.393 41.4028 116.276 41.3794 116.15 41.3794C116.018 41.3794 115.898 41.4043 115.79 41.4541C115.681 41.501 115.587 41.5669 115.508 41.6519C115.432 41.7368 115.372 41.8364 115.328 41.9507C115.287 42.062 115.267 42.1807 115.267 42.3066ZM123.93 41.5859H122.119V47H121.074V41.5859H119.267V40.6982H123.93V41.5859ZM130.365 47H129.315V44.2666H126.349V47H125.303V40.6982H126.349V43.3481H129.315V40.6982H130.365V47ZM135.009 46.7495V45.6729C135.106 45.7607 135.22 45.8398 135.352 45.9102C135.487 45.9805 135.629 46.0405 135.779 46.0903C135.928 46.1372 136.077 46.1738 136.227 46.2002C136.376 46.2266 136.514 46.2397 136.64 46.2397C137.079 46.2397 137.406 46.1665 137.62 46.02C137.837 45.8735 137.945 45.6611 137.945 45.3828C137.945 45.2334 137.908 45.1045 137.835 44.9961C137.765 44.8848 137.665 44.7837 137.536 44.6929C137.407 44.6021 137.255 44.5156 137.079 44.4336C136.906 44.3486 136.72 44.2607 136.521 44.1699C136.307 44.0557 136.108 43.9399 135.924 43.8228C135.739 43.7056 135.578 43.5767 135.44 43.436C135.305 43.2925 135.198 43.1313 135.119 42.9526C135.043 42.7739 135.005 42.5645 135.005 42.3242C135.005 42.0283 135.071 41.772 135.203 41.5552C135.338 41.3354 135.513 41.1553 135.73 41.0146C135.95 40.8711 136.199 40.7656 136.477 40.6982C136.756 40.6279 137.04 40.5928 137.33 40.5928C137.989 40.5928 138.469 40.6675 138.771 40.8169V41.8496C138.414 41.5918 137.954 41.4629 137.391 41.4629C137.236 41.4629 137.081 41.4775 136.925 41.5068C136.773 41.5361 136.635 41.5845 136.512 41.6519C136.392 41.7192 136.294 41.8057 136.218 41.9111C136.142 42.0166 136.104 42.144 136.104 42.2935C136.104 42.4341 136.133 42.5557 136.192 42.6582C136.25 42.7607 136.335 42.8545 136.446 42.9395C136.561 43.0244 136.698 43.1079 136.86 43.1899C137.024 43.269 137.213 43.3555 137.426 43.4492C137.646 43.5635 137.853 43.6836 138.046 43.8096C138.242 43.9355 138.414 44.0747 138.56 44.2271C138.71 44.3794 138.827 44.5493 138.912 44.7368C139 44.9214 139.044 45.1323 139.044 45.3696C139.044 45.689 138.979 45.9585 138.85 46.1782C138.721 46.3979 138.547 46.5767 138.327 46.7144C138.111 46.8521 137.86 46.9517 137.576 47.0132C137.292 47.0747 136.991 47.1055 136.675 47.1055C136.57 47.1055 136.439 47.0967 136.284 47.0791C136.132 47.0645 135.975 47.041 135.814 47.0088C135.653 46.9795 135.5 46.9429 135.357 46.8989C135.213 46.855 135.097 46.8052 135.009 46.7495ZM144.697 41.5859H142.886V47H141.84V41.5859H140.034V40.6982H144.697V41.5859ZM153.867 47H152.646L151.639 45.3125C151.548 45.1572 151.459 45.0254 151.371 44.917C151.286 44.8057 151.198 44.7148 151.108 44.6445C151.02 44.5742 150.923 44.5229 150.817 44.4907C150.712 44.4585 150.593 44.4424 150.462 44.4424H150.04V47H148.998V40.6982H151.072C151.368 40.6982 151.641 40.7334 151.89 40.8037C152.139 40.874 152.356 40.981 152.54 41.1245C152.725 41.2651 152.868 41.4424 152.971 41.6562C153.076 41.8672 153.129 42.1147 153.129 42.3989C153.129 42.6216 153.095 42.8267 153.028 43.0142C152.963 43.1987 152.87 43.3643 152.747 43.5107C152.627 43.6543 152.48 43.7773 152.307 43.8799C152.137 43.9824 151.945 44.0615 151.732 44.1172V44.1348C151.846 44.1992 151.945 44.271 152.03 44.3501C152.115 44.4263 152.196 44.5054 152.272 44.5874C152.348 44.6694 152.423 44.7632 152.496 44.8687C152.572 44.9712 152.656 45.0913 152.747 45.229L153.867 47ZM150.04 41.5464V43.5942H150.91C151.071 43.5942 151.219 43.5693 151.354 43.5195C151.491 43.4697 151.61 43.3979 151.71 43.3042C151.809 43.2104 151.887 43.0962 151.942 42.9614C151.998 42.8267 152.026 42.6758 152.026 42.5088C152.026 42.207 151.931 41.9712 151.74 41.8013C151.55 41.6313 151.276 41.5464 150.919 41.5464H150.04ZM158.593 47H155.056V40.6982H158.453V41.5859H156.101V43.3701H158.268V44.2534H156.101V46.1167H158.593V47ZM160.164 47V40.6982H161.983C164.306 40.6982 165.468 41.7222 165.468 43.77C165.468 44.7427 165.146 45.5249 164.501 46.1167C163.857 46.7056 162.992 47 161.908 47H160.164ZM161.205 41.5859V46.1167H162.04C162.776 46.1167 163.347 45.9146 163.754 45.5103C164.164 45.106 164.369 44.5347 164.369 43.7964C164.369 42.3228 163.606 41.5859 162.08 41.5859H161.205ZM173.841 47H172.804V42.9219C172.804 42.5879 172.825 42.1792 172.866 41.6958H172.848C172.784 41.9712 172.727 42.1689 172.677 42.2891L170.796 47H170.075L168.19 42.3242C168.137 42.1865 168.082 41.9771 168.023 41.6958H168.005C168.029 41.9478 168.041 42.3594 168.041 42.9307V47H167.074V40.6982H168.546L170.203 44.895C170.329 45.2173 170.411 45.4575 170.449 45.6157H170.471C170.579 45.2847 170.667 45.0386 170.734 44.8774L172.422 40.6982H173.841V47ZM178.444 47.1055C177.536 47.1055 176.808 46.811 176.26 46.2222C175.715 45.6333 175.443 44.8672 175.443 43.9238C175.443 42.9102 175.721 42.1016 176.278 41.498C176.834 40.8945 177.59 40.5928 178.545 40.5928C179.43 40.5928 180.142 40.8857 180.681 41.4717C181.223 42.0576 181.494 42.8237 181.494 43.77C181.494 44.7983 181.217 45.6113 180.663 46.209C180.11 46.8066 179.37 47.1055 178.444 47.1055ZM178.492 41.5112C177.915 41.5112 177.445 41.7266 177.082 42.1572C176.721 42.5879 176.541 43.1548 176.541 43.8579C176.541 44.5581 176.717 45.1221 177.069 45.5498C177.42 45.9775 177.88 46.1914 178.449 46.1914C179.052 46.1914 179.528 45.9878 179.877 45.5806C180.225 45.1733 180.4 44.6035 180.4 43.8711C180.4 43.1182 180.23 42.5366 179.89 42.1265C179.553 41.7163 179.087 41.5112 178.492 41.5112ZM188.443 47H187.301L184.291 42.3682C184.214 42.251 184.151 42.1294 184.102 42.0034H184.075C184.099 42.1382 184.11 42.4268 184.11 42.8691V47H183.1V40.6982H184.317L187.226 45.2202C187.349 45.4077 187.428 45.5366 187.463 45.6069H187.481C187.452 45.4399 187.437 45.1572 187.437 44.7588V40.6982H188.443V47ZM190.458 47V40.6982H192.277C194.6 40.6982 195.762 41.7222 195.762 43.77C195.762 44.7427 195.44 45.5249 194.795 46.1167C194.151 46.7056 193.287 47 192.203 47H190.458ZM191.499 41.5859V46.1167H192.334C193.07 46.1167 193.641 45.9146 194.048 45.5103C194.458 45.106 194.663 44.5347 194.663 43.7964C194.663 42.3228 193.9 41.5859 192.374 41.5859H191.499ZM197.689 45.9497L197.008 48.1426H196.243L196.726 45.9497H197.689ZM210.217 40.6982L208.49 47H207.307L206.108 42.5923C206.058 42.4048 206.027 42.1997 206.015 41.9771H205.998C205.983 42.1851 205.948 42.3872 205.892 42.5835L204.688 47H203.48L201.718 40.6982H202.865L204.007 45.3125C204.054 45.5059 204.083 45.708 204.095 45.9189H204.117C204.129 45.7695 204.17 45.5674 204.24 45.3125L205.532 40.6982H206.609L207.804 45.3477C207.845 45.5059 207.876 45.6934 207.896 45.9102H207.914C207.923 45.7637 207.956 45.5703 208.015 45.3301L209.136 40.6982H210.217ZM216.393 47H215.246L214.679 45.396H212.2L211.655 47H210.513L212.873 40.6982H214.05L216.393 47ZM214.402 44.5435L213.527 42.0298C213.501 41.9478 213.473 41.8159 213.444 41.6343H213.426C213.4 41.8013 213.371 41.9331 213.338 42.0298L212.473 44.5435H214.402ZM224.465 43.5063C224.465 44.1362 224.396 44.6782 224.258 45.1323C224.123 45.5864 223.936 45.96 223.696 46.2529C223.458 46.5459 223.178 46.7627 222.856 46.9033C222.537 47.041 222.193 47.1099 221.823 47.1099C221.703 47.1099 221.582 47.1025 221.459 47.0879C221.339 47.0732 221.223 47.0542 221.112 47.0308C221.003 47.0073 220.904 46.9824 220.813 46.9561C220.725 46.9268 220.652 46.8989 220.593 46.8726V45.9541C220.654 45.9922 220.731 46.0317 220.821 46.0728C220.912 46.1108 221.01 46.146 221.116 46.1782C221.224 46.2075 221.336 46.2324 221.45 46.2529C221.567 46.2705 221.68 46.2793 221.788 46.2793C222.037 46.2793 222.263 46.231 222.465 46.1343C222.67 46.0376 222.844 45.894 222.988 45.7036C223.132 45.5132 223.241 45.2773 223.318 44.9961C223.397 44.7119 223.436 44.3838 223.436 44.0117H223.419C223.366 44.1055 223.296 44.1948 223.208 44.2798C223.123 44.3618 223.025 44.4351 222.913 44.4995C222.802 44.561 222.677 44.6108 222.54 44.6489C222.405 44.687 222.26 44.7061 222.105 44.7061C221.841 44.7061 221.595 44.6606 221.366 44.5698C221.141 44.4761 220.945 44.3442 220.778 44.1743C220.611 44.0044 220.479 43.7979 220.382 43.5547C220.288 43.3115 220.241 43.0405 220.241 42.7417C220.241 42.4136 220.296 42.1177 220.404 41.854C220.512 41.5874 220.662 41.3618 220.852 41.1772C221.043 40.9897 221.267 40.8462 221.525 40.7466C221.782 40.644 222.062 40.5928 222.364 40.5928C222.648 40.5928 222.916 40.647 223.168 40.7554C223.423 40.8608 223.646 41.0308 223.836 41.2651C224.029 41.4966 224.182 41.7969 224.293 42.166C224.407 42.5352 224.465 42.9819 224.465 43.5063ZM223.401 42.834C223.401 42.623 223.373 42.4312 223.318 42.2583C223.265 42.0854 223.19 41.9375 223.093 41.8145C222.997 41.6914 222.881 41.5962 222.746 41.5288C222.614 41.4614 222.469 41.4277 222.311 41.4277C222.171 41.4277 222.036 41.457 221.907 41.5156C221.781 41.5713 221.67 41.6519 221.573 41.7573C221.479 41.8628 221.404 41.9902 221.349 42.1396C221.293 42.2891 221.265 42.4546 221.265 42.6362C221.265 42.8354 221.292 43.0112 221.344 43.1636C221.4 43.3159 221.476 43.4448 221.573 43.5503C221.67 43.6528 221.785 43.7319 221.92 43.7876C222.058 43.8403 222.209 43.8667 222.373 43.8667C222.519 43.8667 222.654 43.8403 222.777 43.7876C222.903 43.7319 223.011 43.6587 223.102 43.5679C223.196 43.4741 223.269 43.3643 223.322 43.2383C223.375 43.1123 223.401 42.9775 223.401 42.834ZM225.741 45.2422C225.741 45.0605 225.763 44.8848 225.807 44.7148C225.854 44.5449 225.922 44.3882 226.013 44.2446C226.104 44.1011 226.218 43.9722 226.356 43.8579C226.494 43.7437 226.655 43.6514 226.839 43.5811C226.567 43.4287 226.35 43.2339 226.189 42.9966C226.028 42.7563 225.947 42.4912 225.947 42.2012C225.947 41.9697 225.994 41.7559 226.088 41.5596C226.185 41.3633 226.316 41.1934 226.483 41.0498C226.653 40.9062 226.853 40.7949 227.081 40.7158C227.31 40.6338 227.559 40.5928 227.828 40.5928C228.101 40.5928 228.351 40.6338 228.58 40.7158C228.811 40.7979 229.01 40.9106 229.177 41.0542C229.347 41.1978 229.479 41.3677 229.573 41.564C229.667 41.7603 229.713 41.9727 229.713 42.2012C229.713 42.4912 229.633 42.7563 229.472 42.9966C229.311 43.2339 229.097 43.4287 228.83 43.5811C229.012 43.6514 229.171 43.7437 229.309 43.8579C229.45 43.9692 229.567 44.0967 229.661 44.2402C229.754 44.3838 229.825 44.5405 229.872 44.7104C229.918 44.8804 229.942 45.0576 229.942 45.2422C229.942 45.5176 229.891 45.7695 229.788 45.998C229.686 46.2266 229.542 46.4229 229.357 46.5869C229.173 46.748 228.952 46.874 228.694 46.9648C228.436 47.0557 228.152 47.1011 227.841 47.1011C227.534 47.1011 227.251 47.0557 226.993 46.9648C226.738 46.874 226.517 46.748 226.33 46.5869C226.145 46.4229 226 46.2266 225.895 45.998C225.792 45.7695 225.741 45.5176 225.741 45.2422ZM226.734 45.1543C226.734 45.333 226.76 45.4941 226.813 45.6377C226.866 45.7812 226.94 45.9028 227.037 46.0024C227.134 46.1021 227.25 46.1782 227.384 46.231C227.522 46.2837 227.674 46.3101 227.841 46.3101C228.002 46.3101 228.15 46.2837 228.285 46.231C228.42 46.1753 228.536 46.0977 228.632 45.998C228.732 45.8955 228.81 45.7739 228.865 45.6333C228.921 45.4897 228.949 45.3301 228.949 45.1543C228.949 44.9932 228.922 44.8423 228.87 44.7017C228.817 44.5581 228.742 44.4336 228.646 44.3281C228.549 44.2227 228.432 44.1392 228.294 44.0776C228.159 44.0161 228.008 43.9854 227.841 43.9854C227.683 43.9854 227.535 44.0146 227.397 44.0732C227.263 44.1289 227.146 44.2095 227.046 44.3149C226.949 44.4175 226.873 44.5405 226.817 44.6841C226.762 44.8276 226.734 44.9844 226.734 45.1543ZM226.949 42.3066C226.949 42.4385 226.973 42.5615 227.02 42.6758C227.066 42.7871 227.129 42.8853 227.208 42.9702C227.288 43.0522 227.38 43.1167 227.485 43.1636C227.594 43.2104 227.709 43.2339 227.833 43.2339C227.956 43.2339 228.07 43.2104 228.175 43.1636C228.284 43.1138 228.377 43.0479 228.457 42.9658C228.539 42.8809 228.603 42.7827 228.65 42.6714C228.697 42.5571 228.72 42.4355 228.72 42.3066C228.72 42.1748 228.697 42.0518 228.65 41.9375C228.606 41.8232 228.544 41.7251 228.465 41.6431C228.386 41.561 228.292 41.4966 228.184 41.4497C228.076 41.4028 227.958 41.3794 227.833 41.3794C227.701 41.3794 227.581 41.4043 227.472 41.4541C227.364 41.501 227.27 41.5669 227.191 41.6519C227.115 41.7368 227.055 41.8364 227.011 41.9507C226.97 42.062 226.949 42.1807 226.949 42.3066ZM233.222 47.1055C232.566 47.1055 232.053 46.8374 231.684 46.3013C231.318 45.7651 231.135 44.9902 231.135 43.9766C231.135 42.8633 231.326 42.021 231.71 41.4497C232.094 40.8784 232.648 40.5928 233.371 40.5928C234.757 40.5928 235.45 41.6694 235.45 43.8228C235.45 44.8892 235.254 45.7036 234.861 46.2661C234.471 46.8257 233.925 47.1055 233.222 47.1055ZM233.323 41.4058C232.558 41.4058 232.176 42.248 232.176 43.9326C232.176 45.5088 232.551 46.2969 233.301 46.2969C234.039 46.2969 234.408 45.4956 234.408 43.8931C234.408 42.2349 234.047 41.4058 233.323 41.4058ZM236.924 46.855V45.875C237.337 46.1533 237.756 46.2925 238.181 46.2925C238.608 46.2925 238.953 46.1841 239.213 45.9673C239.474 45.7476 239.605 45.4561 239.605 45.0928C239.605 44.7354 239.471 44.457 239.205 44.2578C238.941 44.0586 238.562 43.959 238.066 43.959C237.897 43.959 237.552 43.9766 237.034 44.0117L237.258 40.6982H240.36V41.5684H238.106L238.001 43.146C238.203 43.1343 238.386 43.1284 238.55 43.1284C239.218 43.1284 239.733 43.2998 240.097 43.6426C240.463 43.9854 240.646 44.4541 240.646 45.0488C240.646 45.6729 240.437 46.1738 240.018 46.5518C239.602 46.9268 239.029 47.1143 238.299 47.1143C237.684 47.1143 237.226 47.0278 236.924 46.855ZM246.079 47H242.124V46.5122C242.124 46.313 242.152 46.127 242.208 45.9541C242.264 45.7783 242.338 45.6143 242.432 45.4619C242.526 45.3066 242.636 45.1616 242.762 45.0269C242.888 44.8892 243.022 44.7573 243.166 44.6313C243.309 44.5024 243.456 44.3794 243.605 44.2622C243.755 44.1421 243.901 44.022 244.045 43.9019C244.18 43.7876 244.303 43.6763 244.414 43.5679C244.525 43.4565 244.621 43.3423 244.7 43.2251C244.779 43.1079 244.84 42.9849 244.884 42.856C244.928 42.7241 244.95 42.582 244.95 42.4297C244.95 42.2627 244.924 42.1177 244.871 41.9946C244.821 41.8687 244.749 41.7646 244.656 41.6826C244.565 41.5977 244.456 41.5347 244.33 41.4937C244.204 41.4497 244.067 41.4277 243.917 41.4277C243.66 41.4277 243.397 41.4878 243.131 41.6079C242.864 41.728 242.608 41.9082 242.362 42.1484V41.1685C242.491 41.0718 242.621 40.9883 242.753 40.918C242.885 40.8447 243.021 40.7847 243.162 40.7378C243.302 40.688 243.45 40.6514 243.605 40.6279C243.761 40.6045 243.926 40.5928 244.102 40.5928C244.386 40.5928 244.644 40.6309 244.875 40.707C245.107 40.7803 245.305 40.8901 245.469 41.0366C245.633 41.1802 245.759 41.3604 245.847 41.5771C245.937 41.7939 245.983 42.043 245.983 42.3242C245.983 42.5791 245.951 42.8091 245.886 43.0142C245.825 43.2163 245.735 43.4053 245.618 43.5811C245.504 43.7568 245.365 43.9238 245.201 44.082C245.037 44.2402 244.853 44.4028 244.651 44.5698C244.481 44.7075 244.311 44.8423 244.142 44.9741C243.975 45.103 243.824 45.2305 243.689 45.3564C243.554 45.4795 243.444 45.604 243.359 45.73C243.277 45.853 243.236 45.9775 243.236 46.1035V46.1255H246.079V47Z" fill="#DFDFDF"/>
<path d="M68.3154 57H64.7778V50.6982H68.1748V51.5859H65.8237V53.3701H67.9902V54.2534H65.8237V56.1167H68.3154V57ZM73.5335 52.5L72.035 54.7764L73.5159 57H72.3338L71.5428 55.6069C71.493 55.522 71.4344 55.4136 71.367 55.2817H71.3494C71.3377 55.3081 71.2762 55.4165 71.1648 55.6069L70.3606 57H69.1829L70.7122 54.7939L69.262 52.5H70.4485L71.2264 53.9634C71.285 54.0718 71.3421 54.1831 71.3978 54.2974H71.4109L72.4173 52.5H73.5335ZM75.7677 56.3364H75.7501V59.0698H74.7306V52.5H75.7501V53.291H75.7677C76.1163 52.6934 76.6261 52.3945 77.297 52.3945C77.8683 52.3945 78.3136 52.5952 78.6329 52.9966C78.9522 53.3979 79.1119 53.937 79.1119 54.6138C79.1119 55.3638 78.9317 55.9644 78.5714 56.4155C78.211 56.8667 77.7188 57.0923 77.0948 57.0923C76.5206 57.0923 76.0782 56.8403 75.7677 56.3364ZM75.7413 54.561V55.1191C75.7413 55.4473 75.8453 55.7256 76.0533 55.9541C76.2643 56.1826 76.5309 56.2969 76.8531 56.2969C77.2311 56.2969 77.527 56.1504 77.7408 55.8574C77.9576 55.5615 78.066 55.1499 78.066 54.6226C78.066 54.1802 77.9649 53.8345 77.7628 53.5854C77.5636 53.3335 77.2926 53.2075 76.9498 53.2075C76.5865 53.2075 76.2936 53.3364 76.0709 53.5942C75.8512 53.8521 75.7413 54.1743 75.7413 54.561ZM81.0253 57.0967C80.8495 57.0967 80.7001 57.0396 80.5771 56.9253C80.454 56.8081 80.3925 56.6689 80.3925 56.5078C80.3925 56.3438 80.454 56.2031 80.5771 56.0859C80.7001 55.9688 80.8495 55.9102 81.0253 55.9102C81.204 55.9102 81.3549 55.9688 81.4779 56.0859C81.6039 56.2031 81.6669 56.3438 81.6669 56.5078C81.6669 56.6689 81.6039 56.8081 81.4779 56.9253C81.3549 57.0396 81.204 57.0967 81.0253 57.0967ZM88.7632 53.4712C88.6401 53.3745 88.4629 53.3262 88.2314 53.3262C87.9297 53.3262 87.6777 53.4624 87.4756 53.7349C87.2734 54.0073 87.1724 54.3779 87.1724 54.8467V57H86.1528V52.5H87.1724V53.4272H87.1899C87.2896 53.1108 87.4419 52.8647 87.647 52.689C87.855 52.5103 88.0864 52.4209 88.3413 52.4209C88.5259 52.4209 88.6665 52.4487 88.7632 52.5044V53.4712ZM93.6648 55.0269H90.5975C90.6092 55.4429 90.7366 55.7637 90.9798 55.9893C91.2259 56.2148 91.5628 56.3276 91.9905 56.3276C92.471 56.3276 92.9119 56.1841 93.3133 55.897V56.7188C92.9031 56.9766 92.3611 57.1055 91.6873 57.1055C91.0252 57.1055 90.5052 56.9019 90.1272 56.4946C89.7522 56.0845 89.5647 55.5088 89.5647 54.7676C89.5647 54.0674 89.7713 53.4976 90.1844 53.0581C90.6004 52.6157 91.116 52.3945 91.7313 52.3945C92.3465 52.3945 92.8226 52.5923 93.1595 52.9878C93.4964 53.3833 93.6648 53.9326 93.6648 54.6357V55.0269ZM92.6805 54.3062C92.6775 53.9399 92.5911 53.6558 92.4212 53.4536C92.2513 53.2485 92.0169 53.146 91.7181 53.146C91.4251 53.146 91.1761 53.2529 90.971 53.4668C90.7688 53.6807 90.6443 53.9604 90.5975 54.3062H92.6805ZM94.8048 56.8594V55.9146C95.1856 56.2046 95.6061 56.3496 96.066 56.3496C96.6812 56.3496 96.9889 56.168 96.9889 55.8047C96.9889 55.7021 96.9625 55.6157 96.9098 55.5454C96.857 55.4722 96.7853 55.4077 96.6944 55.3521C96.6065 55.2964 96.5011 55.2466 96.378 55.2026C96.2579 55.1587 96.1231 55.1089 95.9737 55.0532C95.7892 54.98 95.6222 54.9023 95.4728 54.8203C95.3263 54.7383 95.2032 54.646 95.1036 54.5435C95.0069 54.438 94.9337 54.3193 94.8839 54.1875C94.8341 54.0557 94.8092 53.9019 94.8092 53.7261C94.8092 53.5093 94.8604 53.3188 94.963 53.1548C95.0655 52.9878 95.2032 52.8486 95.3761 52.7373C95.5489 52.623 95.7452 52.5381 95.9649 52.4824C96.1847 52.4238 96.4117 52.3945 96.6461 52.3945C97.0621 52.3945 97.4342 52.4575 97.7623 52.5835V53.4756C97.4459 53.2588 97.0826 53.1504 96.6725 53.1504C96.5436 53.1504 96.4264 53.1636 96.3209 53.1899C96.2184 53.2163 96.1305 53.2529 96.0572 53.2998C95.984 53.3467 95.9269 53.4038 95.8858 53.4712C95.8448 53.5356 95.8243 53.6074 95.8243 53.6865C95.8243 53.7832 95.8448 53.8652 95.8858 53.9326C95.9269 54 95.9869 54.0601 96.066 54.1128C96.148 54.1626 96.2447 54.2095 96.3561 54.2534C96.4703 54.2944 96.6007 54.3398 96.7472 54.3896C96.9405 54.4688 97.1134 54.5493 97.2657 54.6313C97.421 54.7134 97.5528 54.8071 97.6612 54.9126C97.7696 55.0151 97.8531 55.1353 97.9117 55.2729C97.9703 55.4077 97.9996 55.5688 97.9996 55.7563C97.9996 55.9849 97.9469 56.1841 97.8414 56.354C97.7359 56.5239 97.5953 56.6646 97.4195 56.7759C97.2437 56.8872 97.0401 56.9692 96.8087 57.022C96.5802 57.0776 96.3385 57.1055 96.0836 57.1055C95.5914 57.1055 95.1651 57.0234 94.8048 56.8594ZM101.794 56.9517C101.595 57.0513 101.332 57.1011 101.007 57.1011C100.134 57.1011 99.6977 56.6821 99.6977 55.8442V53.2998H98.9462V52.5H99.6977V51.4585L100.717 51.1685V52.5H101.794V53.2998H100.717V55.5498C100.717 55.8164 100.766 56.0068 100.862 56.1211C100.959 56.2354 101.12 56.2925 101.346 56.2925C101.518 56.2925 101.668 56.2427 101.794 56.1431V56.9517ZM105.065 57.1055C104.371 57.1055 103.816 56.896 103.4 56.4771C102.987 56.0552 102.78 55.4971 102.78 54.8027C102.78 54.0469 102.995 53.4565 103.426 53.0317C103.86 52.6069 104.443 52.3945 105.175 52.3945C105.878 52.3945 106.426 52.6011 106.819 53.0142C107.211 53.4272 107.407 54 107.407 54.7324C107.407 55.4502 107.195 56.0259 106.77 56.4595C106.348 56.8901 105.78 57.1055 105.065 57.1055ZM105.113 53.2075C104.715 53.2075 104.4 53.3467 104.169 53.625C103.937 53.9033 103.821 54.2871 103.821 54.7764C103.821 55.248 103.939 55.6201 104.173 55.8926C104.407 56.1621 104.721 56.2969 105.113 56.2969C105.515 56.2969 105.822 56.1636 106.036 55.897C106.253 55.6304 106.362 55.251 106.362 54.7588C106.362 54.2637 106.253 53.8813 106.036 53.6118C105.822 53.3423 105.515 53.2075 105.113 53.2075ZM112.12 56.7935C111.76 57.0015 111.333 57.1055 110.841 57.1055C110.173 57.1055 109.634 56.8975 109.224 56.4814C108.814 56.0625 108.609 55.5205 108.609 54.8555C108.609 54.1143 108.829 53.5195 109.268 53.0713C109.71 52.6201 110.301 52.3945 111.039 52.3945C111.449 52.3945 111.811 52.4663 112.125 52.6099V53.5591C111.811 53.3247 111.477 53.2075 111.123 53.2075C110.692 53.2075 110.339 53.354 110.063 53.647C109.788 53.937 109.65 54.3179 109.65 54.7896C109.65 55.2554 109.779 55.623 110.037 55.8926C110.298 56.1621 110.646 56.2969 111.083 56.2969C111.449 56.2969 111.795 56.1665 112.12 55.9058V56.7935ZM117.668 57H116.376L114.627 54.8379H114.609V57H113.585V50.3379H114.609V54.561H114.627L116.279 52.5H117.505L115.646 54.6709L117.668 57ZM125.784 57H124.764V56.2354H124.746C124.418 56.8154 123.913 57.1055 123.23 57.1055C122.677 57.1055 122.233 56.9048 121.899 56.5034C121.568 56.0991 121.402 55.5498 121.402 54.8555C121.402 54.1113 121.585 53.5151 121.952 53.0669C122.321 52.6187 122.811 52.3945 123.424 52.3945C124.03 52.3945 124.471 52.6377 124.746 53.124H124.764V50.3379H125.784V57ZM124.777 54.9434V54.3545C124.777 54.0352 124.673 53.7642 124.465 53.5415C124.257 53.3188 123.992 53.2075 123.67 53.2075C123.289 53.2075 122.989 53.3496 122.769 53.6338C122.552 53.918 122.444 54.312 122.444 54.8159C122.444 55.2729 122.548 55.6348 122.756 55.9014C122.967 56.165 123.249 56.2969 123.604 56.2969C123.953 56.2969 124.235 56.1694 124.452 55.9146C124.669 55.6567 124.777 55.333 124.777 54.9434ZM131.019 57H130.03V56.2969H130.013C129.702 56.8359 129.247 57.1055 128.646 57.1055C128.204 57.1055 127.857 56.9854 127.605 56.7451C127.356 56.5049 127.231 56.187 127.231 55.7915C127.231 54.9419 127.72 54.4468 128.699 54.3062L130.035 54.1172C130.035 53.4756 129.73 53.1548 129.121 53.1548C128.585 53.1548 128.101 53.3394 127.671 53.7085V52.8164C128.145 52.5352 128.693 52.3945 129.314 52.3945C130.451 52.3945 131.019 52.9541 131.019 54.0732V57ZM130.035 54.7896L129.09 54.9214C128.797 54.9595 128.576 55.0312 128.426 55.1367C128.28 55.2393 128.207 55.4209 128.207 55.6816C128.207 55.8721 128.274 56.0288 128.409 56.1519C128.547 56.272 128.73 56.332 128.958 56.332C129.269 56.332 129.525 56.2236 129.727 56.0068C129.932 55.7871 130.035 55.5117 130.035 55.1807V54.7896ZM135.09 56.9517C134.891 57.0513 134.629 57.1011 134.304 57.1011C133.431 57.1011 132.994 56.6821 132.994 55.8442V53.2998H132.243V52.5H132.994V51.4585L134.014 51.1685V52.5H135.09V53.2998H134.014V55.5498C134.014 55.8164 134.062 56.0068 134.159 56.1211C134.255 56.2354 134.417 56.2925 134.642 56.2925C134.815 56.2925 134.964 56.2427 135.09 56.1431V56.9517ZM140.177 55.0269H137.109C137.121 55.4429 137.248 55.7637 137.492 55.9893C137.738 56.2148 138.075 56.3276 138.502 56.3276C138.983 56.3276 139.424 56.1841 139.825 55.897V56.7188C139.415 56.9766 138.873 57.1055 138.199 57.1055C137.537 57.1055 137.017 56.9019 136.639 56.4946C136.264 56.0845 136.076 55.5088 136.076 54.7676C136.076 54.0674 136.283 53.4976 136.696 53.0581C137.112 52.6157 137.628 52.3945 138.243 52.3945C138.858 52.3945 139.334 52.5923 139.671 52.9878C140.008 53.3833 140.177 53.9326 140.177 54.6357V55.0269ZM139.192 54.3062C139.189 53.9399 139.103 53.6558 138.933 53.4536C138.763 53.2485 138.529 53.146 138.23 53.146C137.937 53.146 137.688 53.2529 137.483 53.4668C137.281 53.6807 137.156 53.9604 137.109 54.3062H139.192ZM146.763 58.4326H145.902C144.976 57.3955 144.513 56.1167 144.513 54.5962C144.513 53.0698 144.976 51.7705 145.902 50.6982H146.767C145.859 51.8115 145.405 53.1079 145.405 54.5874C145.405 56.0552 145.858 57.3369 146.763 58.4326ZM151.616 57H148.079V50.6982H151.476V51.5859H149.125V53.3701H151.291V54.2534H149.125V56.1167H151.616V57ZM158.056 57H156.834L155.828 55.3125C155.737 55.1572 155.648 55.0254 155.56 54.917C155.475 54.8057 155.387 54.7148 155.296 54.6445C155.208 54.5742 155.112 54.5229 155.006 54.4907C154.901 54.4585 154.782 54.4424 154.65 54.4424H154.229V57H153.187V50.6982H155.261C155.557 50.6982 155.83 50.7334 156.079 50.8037C156.328 50.874 156.544 50.981 156.729 51.1245C156.914 51.2651 157.057 51.4424 157.16 51.6562C157.265 51.8672 157.318 52.1147 157.318 52.3989C157.318 52.6216 157.284 52.8267 157.217 53.0142C157.152 53.1987 157.059 53.3643 156.936 53.5107C156.815 53.6543 156.669 53.7773 156.496 53.8799C156.326 53.9824 156.134 54.0615 155.92 54.1172V54.1348C156.035 54.1992 156.134 54.271 156.219 54.3501C156.304 54.4263 156.385 54.5054 156.461 54.5874C156.537 54.6694 156.612 54.7632 156.685 54.8687C156.761 54.9712 156.845 55.0913 156.936 55.229L158.056 57ZM154.229 51.5464V53.5942H155.099C155.26 53.5942 155.408 53.5693 155.542 53.5195C155.68 53.4697 155.799 53.3979 155.898 53.3042C155.998 53.2104 156.076 53.0962 156.131 52.9614C156.187 52.8267 156.215 52.6758 156.215 52.5088C156.215 52.207 156.12 51.9712 155.929 51.8013C155.739 51.6313 155.465 51.5464 155.107 51.5464H154.229ZM159.244 57V50.6982H161.064C163.387 50.6982 164.549 51.7222 164.549 53.77C164.549 54.7427 164.226 55.5249 163.582 56.1167C162.937 56.7056 162.073 57 160.989 57H159.244ZM160.286 51.5859V56.1167H161.121C161.856 56.1167 162.428 55.9146 162.835 55.5103C163.245 55.106 163.45 54.5347 163.45 53.7964C163.45 52.3228 162.687 51.5859 161.16 51.5859H160.286ZM166.33 58.4326H165.469C166.377 57.3369 166.831 56.0552 166.831 54.5874C166.831 53.1079 166.376 51.8115 165.464 50.6982H166.335C167.263 51.7705 167.728 53.0698 167.728 54.5962C167.728 56.1167 167.262 57.3955 166.33 58.4326ZM169.9 57.0967C169.725 57.0967 169.575 57.0396 169.452 56.9253C169.329 56.8081 169.267 56.6689 169.267 56.5078C169.267 56.3438 169.329 56.2031 169.452 56.0859C169.575 55.9688 169.725 55.9102 169.9 55.9102C170.079 55.9102 170.23 55.9688 170.353 56.0859C170.479 56.2031 170.542 56.3438 170.542 56.5078C170.542 56.6689 170.479 56.8081 170.353 56.9253C170.23 57.0396 170.079 57.0967 169.9 57.0967ZM169.9 53.6206C169.725 53.6206 169.575 53.5635 169.452 53.4492C169.329 53.332 169.267 53.1929 169.267 53.0317C169.267 52.8677 169.329 52.7271 169.452 52.6099C169.575 52.4927 169.725 52.4341 169.9 52.4341C170.079 52.4341 170.23 52.4927 170.353 52.6099C170.479 52.7271 170.542 52.8677 170.542 53.0317C170.542 53.1929 170.479 53.332 170.353 53.4492C170.23 53.5635 170.079 53.6206 169.9 53.6206ZM174.905 56.7671V55.8091C175.315 56.1343 175.778 56.2969 176.293 56.2969C176.712 56.2969 177.046 56.2017 177.295 56.0112C177.547 55.8208 177.673 55.563 177.673 55.2378C177.673 54.5229 177.127 54.1655 176.034 54.1655H175.546V53.3481H176.012C176.982 53.3481 177.467 53.0112 177.467 52.3374C177.467 51.7163 177.089 51.4058 176.333 51.4058C175.911 51.4058 175.514 51.5566 175.142 51.8584V50.9531C175.57 50.7129 176.075 50.5928 176.658 50.5928C177.218 50.5928 177.666 50.7334 178.003 51.0146C178.34 51.2959 178.508 51.6562 178.508 52.0957C178.508 52.9248 178.086 53.458 177.243 53.6953V53.7129C177.697 53.7568 178.056 53.9165 178.319 54.1919C178.583 54.4644 178.715 54.8057 178.715 55.2158C178.715 55.7812 178.502 56.2383 178.078 56.5869C177.653 56.9326 177.093 57.1055 176.399 57.1055C175.775 57.1055 175.277 56.9927 174.905 56.7671ZM183.625 50.6982L180.58 58.0459H179.653L182.685 50.6982H183.625ZM184.532 56.7671V55.8091C184.942 56.1343 185.405 56.2969 185.921 56.2969C186.34 56.2969 186.674 56.2017 186.923 56.0112C187.175 55.8208 187.301 55.563 187.301 55.2378C187.301 54.5229 186.754 54.1655 185.662 54.1655H185.174V53.3481H185.64C186.609 53.3481 187.094 53.0112 187.094 52.3374C187.094 51.7163 186.716 51.4058 185.961 51.4058C185.539 51.4058 185.142 51.5566 184.77 51.8584V50.9531C185.197 50.7129 185.703 50.5928 186.286 50.5928C186.845 50.5928 187.294 50.7334 187.63 51.0146C187.967 51.2959 188.136 51.6562 188.136 52.0957C188.136 52.9248 187.714 53.458 186.87 53.6953V53.7129C187.324 53.7568 187.683 53.9165 187.947 54.1919C188.211 54.4644 188.342 54.8057 188.342 55.2158C188.342 55.7812 188.13 56.2383 187.705 56.5869C187.28 56.9326 186.721 57.1055 186.026 57.1055C185.402 57.1055 184.904 56.9927 184.532 56.7671ZM193.253 50.6982L190.207 58.0459H189.28L192.312 50.6982H193.253ZM198.005 57H194.05V56.5122C194.05 56.313 194.078 56.127 194.133 55.9541C194.189 55.7783 194.264 55.6143 194.358 55.4619C194.451 55.3066 194.561 55.1616 194.687 55.0269C194.813 54.8892 194.948 54.7573 195.092 54.6313C195.235 54.5024 195.382 54.3794 195.531 54.2622C195.68 54.1421 195.827 54.022 195.97 53.9019C196.105 53.7876 196.228 53.6763 196.34 53.5679C196.451 53.4565 196.546 53.3423 196.625 53.2251C196.704 53.1079 196.766 52.9849 196.81 52.856C196.854 52.7241 196.876 52.582 196.876 52.4297C196.876 52.2627 196.849 52.1177 196.797 51.9946C196.747 51.8687 196.675 51.7646 196.581 51.6826C196.49 51.5977 196.382 51.5347 196.256 51.4937C196.13 51.4497 195.992 51.4277 195.843 51.4277C195.585 51.4277 195.323 51.4878 195.056 51.6079C194.79 51.728 194.533 51.9082 194.287 52.1484V51.1685C194.416 51.0718 194.547 50.9883 194.678 50.918C194.81 50.8447 194.946 50.7847 195.087 50.7378C195.228 50.688 195.376 50.6514 195.531 50.6279C195.686 50.6045 195.852 50.5928 196.028 50.5928C196.312 50.5928 196.57 50.6309 196.801 50.707C197.032 50.7803 197.23 50.8901 197.394 51.0366C197.558 51.1802 197.684 51.3604 197.772 51.5771C197.863 51.7939 197.908 52.043 197.908 52.3242C197.908 52.5791 197.876 52.8091 197.812 53.0142C197.75 53.2163 197.661 53.4053 197.544 53.5811C197.429 53.7568 197.29 53.9238 197.126 54.082C196.962 54.2402 196.779 54.4028 196.577 54.5698C196.407 54.7075 196.237 54.8423 196.067 54.9741C195.9 55.103 195.749 55.2305 195.614 55.3564C195.48 55.4795 195.37 55.604 195.285 55.73C195.203 55.853 195.162 55.9775 195.162 56.1035V56.1255H198.005V57ZM201.5 57.1055C200.844 57.1055 200.332 56.8374 199.962 56.3013C199.596 55.7651 199.413 54.9902 199.413 53.9766C199.413 52.8633 199.605 52.021 199.989 51.4497C200.373 50.8784 200.926 50.5928 201.65 50.5928C203.036 50.5928 203.729 51.6694 203.729 53.8228C203.729 54.8892 203.532 55.7036 203.14 56.2661C202.75 56.8257 202.204 57.1055 201.5 57.1055ZM201.602 51.4058C200.837 51.4058 200.455 52.248 200.455 53.9326C200.455 55.5088 200.83 56.2969 201.58 56.2969C202.318 56.2969 202.687 55.4956 202.687 53.8931C202.687 52.2349 202.325 51.4058 201.602 51.4058ZM208.907 57H204.952V56.5122C204.952 56.313 204.98 56.127 205.035 55.9541C205.091 55.7783 205.166 55.6143 205.26 55.4619C205.353 55.3066 205.463 55.1616 205.589 55.0269C205.715 54.8892 205.85 54.7573 205.993 54.6313C206.137 54.5024 206.283 54.3794 206.433 54.2622C206.582 54.1421 206.729 54.022 206.872 53.9019C207.007 53.7876 207.13 53.6763 207.242 53.5679C207.353 53.4565 207.448 53.3423 207.527 53.2251C207.606 53.1079 207.668 52.9849 207.712 52.856C207.756 52.7241 207.778 52.582 207.778 52.4297C207.778 52.2627 207.751 52.1177 207.699 51.9946C207.649 51.8687 207.577 51.7646 207.483 51.6826C207.392 51.5977 207.284 51.5347 207.158 51.4937C207.032 51.4497 206.894 51.4277 206.745 51.4277C206.487 51.4277 206.225 51.4878 205.958 51.6079C205.692 51.728 205.435 51.9082 205.189 52.1484V51.1685C205.318 51.0718 205.449 50.9883 205.58 50.918C205.712 50.8447 205.848 50.7847 205.989 50.7378C206.13 50.688 206.278 50.6514 206.433 50.6279C206.588 50.6045 206.754 50.5928 206.929 50.5928C207.214 50.5928 207.471 50.6309 207.703 50.707C207.934 50.7803 208.132 50.8901 208.296 51.0366C208.46 51.1802 208.586 51.3604 208.674 51.5771C208.765 51.7939 208.81 52.043 208.81 52.3242C208.81 52.5791 208.778 52.8091 208.714 53.0142C208.652 53.2163 208.563 53.4053 208.446 53.5811C208.331 53.7568 208.192 53.9238 208.028 54.082C207.864 54.2402 207.681 54.4028 207.479 54.5698C207.309 54.7075 207.139 54.8423 206.969 54.9741C206.802 55.103 206.651 55.2305 206.516 55.3564C206.382 55.4795 206.272 55.604 206.187 55.73C206.105 55.853 206.064 55.9775 206.064 56.1035V56.1255H208.907V57ZM214.358 57H210.403V56.5122C210.403 56.313 210.431 56.127 210.486 55.9541C210.542 55.7783 210.617 55.6143 210.711 55.4619C210.804 55.3066 210.914 55.1616 211.04 55.0269C211.166 54.8892 211.301 54.7573 211.444 54.6313C211.588 54.5024 211.734 54.3794 211.884 54.2622C212.033 54.1421 212.18 54.022 212.323 53.9019C212.458 53.7876 212.581 53.6763 212.692 53.5679C212.804 53.4565 212.899 53.3423 212.978 53.2251C213.057 53.1079 213.119 52.9849 213.163 52.856C213.207 52.7241 213.229 52.582 213.229 52.4297C213.229 52.2627 213.202 52.1177 213.15 51.9946C213.1 51.8687 213.028 51.7646 212.934 51.6826C212.843 51.5977 212.735 51.5347 212.609 51.4937C212.483 51.4497 212.345 51.4277 212.196 51.4277C211.938 51.4277 211.676 51.4878 211.409 51.6079C211.143 51.728 210.886 51.9082 210.64 52.1484V51.1685C210.769 51.0718 210.9 50.9883 211.031 50.918C211.163 50.8447 211.299 50.7847 211.44 50.7378C211.581 50.688 211.729 50.6514 211.884 50.6279C212.039 50.6045 212.205 50.5928 212.38 50.5928C212.665 50.5928 212.922 50.6309 213.154 50.707C213.385 50.7803 213.583 50.8901 213.747 51.0366C213.911 51.1802 214.037 51.3604 214.125 51.5771C214.216 51.7939 214.261 52.043 214.261 52.3242C214.261 52.5791 214.229 52.8091 214.165 53.0142C214.103 53.2163 214.014 53.4053 213.897 53.5811C213.782 53.7568 213.643 53.9238 213.479 54.082C213.315 54.2402 213.132 54.4028 212.93 54.5698C212.76 54.7075 212.59 54.8423 212.42 54.9741C212.253 55.103 212.102 55.2305 211.967 55.3564C211.833 55.4795 211.723 55.604 211.638 55.73C211.556 55.853 211.515 55.9775 211.515 56.1035V56.1255H214.358V57Z" fill="#CDE9FF"/>
<path d="M69.8203 35.751C69.3092 35.9984 68.6419 36.1221 67.8184 36.1221C66.7441 36.1221 65.8994 35.8063 65.2842 35.1748C64.6689 34.5433 64.3613 33.7018 64.3613 32.6504C64.3613 31.5306 64.7064 30.6224 65.3965 29.9258C66.0898 29.2292 66.9883 28.8809 68.0918 28.8809C68.7754 28.8809 69.3516 28.9671 69.8203 29.1396V30.6582C69.3516 30.3783 68.8177 30.2383 68.2188 30.2383C67.5612 30.2383 67.0306 30.445 66.627 30.8584C66.2233 31.2718 66.0215 31.8317 66.0215 32.5381C66.0215 33.2152 66.2119 33.7555 66.5928 34.1592C66.9736 34.5596 67.4863 34.7598 68.1309 34.7598C68.7461 34.7598 69.3092 34.61 69.8203 34.3105V35.751ZM73.7725 36.1221C72.9391 36.1221 72.2832 35.8893 71.8047 35.4238C71.3294 34.9551 71.0918 34.3203 71.0918 33.5195C71.0918 32.6927 71.3392 32.0465 71.834 31.5811C72.3288 31.1123 72.9977 30.8779 73.8408 30.8779C74.6709 30.8779 75.3219 31.1123 75.7939 31.5811C76.266 32.0465 76.502 32.6634 76.502 33.4316C76.502 34.2617 76.2578 34.9176 75.7695 35.3994C75.2845 35.8812 74.6188 36.1221 73.7725 36.1221ZM73.8115 32.0596C73.4469 32.0596 73.1637 32.1849 72.9619 32.4355C72.7601 32.6862 72.6592 33.041 72.6592 33.5C72.6592 34.4603 73.0465 34.9404 73.8213 34.9404C74.5602 34.9404 74.9297 34.4473 74.9297 33.4609C74.9297 32.5267 74.557 32.0596 73.8115 32.0596ZM82.832 36H81.2939V33.2217C81.2939 32.4469 81.0173 32.0596 80.4639 32.0596C80.1969 32.0596 79.9772 32.1621 79.8047 32.3672C79.6322 32.5723 79.5459 32.8327 79.5459 33.1484V36H78.0029V31H79.5459V31.791H79.5654C79.9333 31.1823 80.4688 30.8779 81.1719 30.8779C82.2786 30.8779 82.832 31.5648 82.832 32.9385V36ZM87.5801 35.9414C87.3522 36.0618 87.0088 36.1221 86.5498 36.1221C85.4626 36.1221 84.9189 35.5573 84.9189 34.4277V32.1377H84.1084V31H84.9189V29.9209L86.457 29.4814V31H87.5801V32.1377H86.457V34.1592C86.457 34.68 86.6637 34.9404 87.0771 34.9404C87.2399 34.9404 87.4076 34.8932 87.5801 34.7988V35.9414ZM91.2979 36.1221C90.4645 36.1221 89.8086 35.8893 89.3301 35.4238C88.8548 34.9551 88.6172 34.3203 88.6172 33.5195C88.6172 32.6927 88.8646 32.0465 89.3594 31.5811C89.8542 31.1123 90.5231 30.8779 91.3662 30.8779C92.1963 30.8779 92.8473 31.1123 93.3193 31.5811C93.7913 32.0465 94.0273 32.6634 94.0273 33.4316C94.0273 34.2617 93.7832 34.9176 93.2949 35.3994C92.8099 35.8812 92.1442 36.1221 91.2979 36.1221ZM91.3369 32.0596C90.9723 32.0596 90.6891 32.1849 90.4873 32.4355C90.2855 32.6862 90.1846 33.041 90.1846 33.5C90.1846 34.4603 90.5719 34.9404 91.3467 34.9404C92.0856 34.9404 92.4551 34.4473 92.4551 33.4609C92.4551 32.5267 92.0824 32.0596 91.3369 32.0596ZM95.2012 35.8682V34.6182C95.4551 34.7712 95.7074 34.8851 95.958 34.96C96.2119 35.0348 96.4512 35.0723 96.6758 35.0723C96.9492 35.0723 97.1641 35.0348 97.3203 34.96C97.4798 34.8851 97.5596 34.7712 97.5596 34.6182C97.5596 34.5205 97.5238 34.4391 97.4521 34.374C97.3805 34.3089 97.2878 34.252 97.1738 34.2031C97.0632 34.1543 96.9411 34.1104 96.8076 34.0713C96.6742 34.0322 96.5456 33.9883 96.4219 33.9395C96.2233 33.8646 96.0475 33.7848 95.8945 33.7002C95.7448 33.6123 95.6178 33.5114 95.5137 33.3975C95.4128 33.2835 95.3346 33.1517 95.2793 33.002C95.2272 32.8522 95.2012 32.6748 95.2012 32.4697C95.2012 32.1898 95.2614 31.9489 95.3818 31.7471C95.5055 31.5452 95.6683 31.3809 95.8701 31.2539C96.0752 31.1237 96.3079 31.0293 96.5684 30.9707C96.832 30.9089 97.1055 30.8779 97.3887 30.8779C97.61 30.8779 97.8346 30.8958 98.0625 30.9316C98.2904 30.9642 98.515 31.013 98.7363 31.0781V32.2695C98.541 32.1556 98.3311 32.071 98.1064 32.0156C97.8851 31.957 97.667 31.9277 97.4521 31.9277C97.3512 31.9277 97.2552 31.9375 97.1641 31.957C97.0762 31.9733 96.998 31.9993 96.9297 32.0352C96.8613 32.0677 96.8076 32.1117 96.7686 32.167C96.7295 32.2191 96.71 32.2793 96.71 32.3477C96.71 32.4388 96.7393 32.5169 96.7979 32.582C96.8564 32.6471 96.9329 32.7041 97.0273 32.7529C97.1217 32.7985 97.2259 32.8408 97.3398 32.8799C97.457 32.9157 97.5726 32.9531 97.6865 32.9922C97.8916 33.0638 98.0771 33.1419 98.2432 33.2266C98.4092 33.3112 98.5508 33.4105 98.668 33.5244C98.7884 33.6383 98.8796 33.7718 98.9414 33.9248C99.0065 34.0778 99.0391 34.2601 99.0391 34.4717C99.0391 34.7679 98.974 35.0218 98.8438 35.2334C98.7168 35.4417 98.5459 35.6126 98.3311 35.7461C98.1195 35.8763 97.8737 35.9707 97.5938 36.0293C97.3171 36.0911 97.029 36.1221 96.7295 36.1221C96.1794 36.1221 95.6699 36.0374 95.2012 35.8682ZM102.815 36.1221C101.982 36.1221 101.326 35.8893 100.848 35.4238C100.372 34.9551 100.135 34.3203 100.135 33.5195C100.135 32.6927 100.382 32.0465 100.877 31.5811C101.372 31.1123 102.041 30.8779 102.884 30.8779C103.714 30.8779 104.365 31.1123 104.837 31.5811C105.309 32.0465 105.545 32.6634 105.545 33.4316C105.545 34.2617 105.301 34.9176 104.812 35.3994C104.327 35.8812 103.662 36.1221 102.815 36.1221ZM102.854 32.0596C102.49 32.0596 102.207 32.1849 102.005 32.4355C101.803 32.6862 101.702 33.041 101.702 33.5C101.702 34.4603 102.09 34.9404 102.864 34.9404C103.603 34.9404 103.973 34.4473 103.973 33.4609C103.973 32.5267 103.6 32.0596 102.854 32.0596ZM118.439 36H116.882V31.8105C116.882 31.3581 116.901 30.8584 116.94 30.3115H116.901C116.82 30.7412 116.747 31.0505 116.682 31.2393L115.041 36H113.752L112.082 31.2881C112.036 31.1611 111.963 30.8356 111.862 30.3115H111.818C111.861 31.0016 111.882 31.6071 111.882 32.1279V36H110.461V28.998H112.771L114.201 33.1484C114.315 33.4805 114.398 33.8141 114.45 34.1494H114.479C114.567 33.762 114.66 33.4251 114.758 33.1387L116.188 28.998H118.439V36ZM124.54 36H123.08V35.2822H123.061C122.725 35.8421 122.229 36.1221 121.571 36.1221C121.086 36.1221 120.704 35.9854 120.424 35.7119C120.147 35.4352 120.009 35.0674 120.009 34.6084C120.009 33.6383 120.583 33.0785 121.732 32.9287L123.09 32.748C123.09 32.2012 122.794 31.9277 122.201 31.9277C121.605 31.9277 121.039 32.1051 120.502 32.46V31.2979C120.717 31.1872 121.01 31.0895 121.381 31.0049C121.755 30.9202 122.095 30.8779 122.401 30.8779C123.827 30.8779 124.54 31.5892 124.54 33.0117V36ZM123.09 33.9688V33.6318L122.182 33.749C121.68 33.8141 121.43 34.0404 121.43 34.4277C121.43 34.6035 121.49 34.7484 121.61 34.8623C121.734 34.973 121.9 35.0283 122.108 35.0283C122.398 35.0283 122.634 34.929 122.816 34.7305C122.999 34.5286 123.09 34.2747 123.09 33.9688ZM129.522 32.3916C129.337 32.2907 129.12 32.2402 128.873 32.2402C128.538 32.2402 128.276 32.3639 128.087 32.6113C127.898 32.8555 127.804 33.1891 127.804 33.6123V36H126.261V31H127.804V31.9277H127.823C128.067 31.2507 128.507 30.9121 129.142 30.9121C129.304 30.9121 129.431 30.9316 129.522 30.9707V32.3916ZM135.755 36H133.904L132.308 33.5195H132.288V36H130.745V28.5977H132.288V33.3096H132.308L133.797 31H135.628L133.836 33.3486L135.755 36ZM141.187 33.9395H137.925C137.977 34.6654 138.434 35.0283 139.297 35.0283C139.847 35.0283 140.33 34.8981 140.747 34.6377V35.751C140.285 35.9984 139.684 36.1221 138.945 36.1221C138.138 36.1221 137.511 35.8991 137.065 35.4531C136.619 35.0039 136.396 34.3789 136.396 33.5781C136.396 32.748 136.637 32.0905 137.119 31.6055C137.601 31.1204 138.193 30.8779 138.896 30.8779C139.626 30.8779 140.189 31.0944 140.586 31.5273C140.986 31.9603 141.187 32.5479 141.187 33.29V33.9395ZM139.756 32.9922C139.756 32.276 139.466 31.918 138.887 31.918C138.639 31.918 138.424 32.0205 138.242 32.2256C138.063 32.4307 137.954 32.6862 137.915 32.9922H139.756ZM145.627 35.9414C145.399 36.0618 145.056 36.1221 144.597 36.1221C143.509 36.1221 142.966 35.5573 142.966 34.4277V32.1377H142.155V31H142.966V29.9209L144.504 29.4814V31H145.627V32.1377H144.504V34.1592C144.504 34.68 144.711 34.9404 145.124 34.9404C145.287 34.9404 145.454 34.8932 145.627 34.7988V35.9414Z" fill="white"/>
<circle cx="43.5" cy="41.5" r="15.5" fill="white"/>
<g clip-path="url(#clip0_351_30021)">
<path d="M39.3433 50.7999C39.1998 50.7543 39.0514 50.7238 38.9137 50.6612C38.276 50.3652 37.934 49.8601 37.9262 49.1594C37.914 47.9793 37.9228 46.7992 37.9228 45.6172V33.9623C37.9228 32.8856 38.6073 32.2004 39.6819 32.2H47.7477C48.8237 32.2 49.5063 32.8836 49.5068 33.9614V48.9963C49.5068 49.9775 49.0665 50.5423 48.1169 50.7815C48.1058 50.7863 48.0953 50.7925 48.0858 50.7999H39.3433ZM39.0154 40.89V49.0531C39.0154 49.5044 39.2197 49.7096 39.6683 49.7096H47.752C48.2127 49.7096 48.4136 49.5073 48.4136 49.0439V40.892L39.0154 40.89ZM48.4136 39.7851V39.591C48.4136 37.709 48.4136 35.8266 48.4136 33.9439C48.4136 33.4955 48.2084 33.2912 47.7579 33.2912H39.6741C39.2212 33.2912 39.0159 33.4941 39.0159 33.9415C39.0159 35.8235 39.0159 37.7057 39.0159 39.5881V39.7851H48.4136Z" fill="#0078D4"/>
<path d="M41.3467 44.4186C41.3467 44.7869 41.3467 45.1557 41.3467 45.524C41.3467 45.8719 41.1113 46.1179 40.7931 46.1131C40.4749 46.1082 40.258 45.8656 40.2555 45.5264C40.2536 44.7772 40.2536 44.028 40.2555 43.2788C40.2555 42.9431 40.4886 42.6999 40.7999 42.6995C41.1113 42.699 41.3433 42.9392 41.3467 43.2788C41.3491 43.6573 41.3467 44.0377 41.3467 44.4186Z" fill="#0078D4"/>
<path d="M41.3467 36.8484C41.3467 37.0425 41.3511 37.2366 41.3467 37.4307C41.3484 37.5035 41.3354 37.5758 41.3085 37.6435C41.2817 37.7111 41.2415 37.7727 41.1903 37.8246C41.1392 37.8765 41.0781 37.9176 41.0107 37.9455C40.9434 37.9734 40.8711 37.9876 40.7981 37.9871C40.7252 37.9867 40.653 37.9716 40.586 37.9429C40.519 37.9141 40.4584 37.8722 40.4079 37.8197C40.3574 37.7672 40.318 37.7051 40.292 37.6371C40.266 37.5691 40.2539 37.4966 40.2565 37.4239C40.2517 37.0435 40.2517 36.6632 40.2565 36.2831C40.2604 35.9634 40.4998 35.7246 40.8048 35.7266C41.1098 35.7285 41.3399 35.9692 41.3472 36.2894C41.3496 36.4743 41.3467 36.6616 41.3467 36.8484Z" fill="#0078D4"/>
</g>
<g clip-path="url(#clip1_351_30021)">
<path d="M207.113 32.8748L210.034 29.8308C210.015 29.8089 209.99 29.7758 209.962 29.7458C209.799 29.5741 209.635 29.4037 209.471 29.2346C209.385 29.1448 209.326 29.0476 209.374 28.9127C209.421 28.7778 209.512 28.7363 209.64 28.7231C210.325 28.6523 211.009 28.576 211.693 28.5023C211.882 28.482 212.013 28.5988 211.998 28.7965C211.973 29.1506 211.937 29.5066 211.901 29.8614C211.864 30.2161 211.825 30.5696 211.793 30.9237C211.781 31.0615 211.748 31.1812 211.614 31.2308C211.479 31.2804 211.377 31.2273 211.284 31.1236C211.133 30.9569 210.977 30.7969 210.813 30.624C210.768 30.6668 210.731 30.6997 210.697 30.7351C209.661 31.8141 208.62 32.888 207.594 33.9767C207.343 34.242 206.956 34.2539 206.701 33.9748C206.169 33.3931 205.615 32.8346 205.069 32.2667C205.038 32.2329 205.003 32.2007 204.963 32.1608C204.922 32.2001 204.884 32.2329 204.85 32.2693C203.88 33.281 202.91 34.2923 201.94 35.3033C201.776 35.4749 201.586 35.5438 201.362 35.4681C201.28 35.4397 201.205 35.3904 201.145 35.3247C201.085 35.259 201.042 35.1788 201.018 35.0913C200.995 35.0039 200.993 34.9118 201.013 34.8233C201.032 34.7349 201.072 34.6527 201.129 34.5842C201.156 34.552 201.187 34.5198 201.217 34.4876C202.319 33.3418 203.42 32.1952 204.52 31.0476C204.812 30.7434 205.109 30.7441 205.403 31.0505C205.946 31.6156 206.488 32.1809 207.03 32.7464C207.062 32.7861 207.09 32.8292 207.113 32.8748Z" fill="#52FF8D"/>
</g>
<path d="M217.095 34.7207H220.063V36H215.405V35.4727C215.405 35.1146 215.465 34.7939 215.586 34.5107C215.706 34.2243 215.858 33.9688 216.04 33.7441C216.222 33.5163 216.421 33.3161 216.636 33.1436C216.854 32.9678 217.061 32.8099 217.256 32.6699C217.461 32.5234 217.64 32.3835 217.793 32.25C217.949 32.1165 218.079 31.9847 218.184 31.8545C218.291 31.721 218.371 31.5876 218.423 31.4541C218.475 31.3174 218.501 31.1725 218.501 31.0195C218.501 30.7201 218.416 30.4938 218.247 30.3408C218.078 30.1878 217.819 30.1113 217.471 30.1113C216.868 30.1113 216.292 30.3506 215.742 30.8291V29.4717C216.351 29.0778 217.038 28.8809 217.803 28.8809C218.158 28.8809 218.475 28.9281 218.755 29.0225C219.038 29.1136 219.277 29.2454 219.473 29.418C219.668 29.5905 219.816 29.8005 219.917 30.0479C220.021 30.292 220.073 30.5654 220.073 30.8682C220.073 31.1904 220.023 31.4769 219.922 31.7275C219.824 31.9782 219.692 32.2061 219.526 32.4111C219.364 32.6162 219.175 32.805 218.96 32.9775C218.745 33.1468 218.522 33.3112 218.291 33.4707C218.135 33.5814 217.983 33.6921 217.837 33.8027C217.694 33.9102 217.567 34.0176 217.456 34.125C217.345 34.2292 217.257 34.3317 217.192 34.4326C217.127 34.5335 217.095 34.6296 217.095 34.7207ZM226.672 33.6709C226.672 34.016 226.612 34.3382 226.491 34.6377C226.371 34.9372 226.203 35.1976 225.988 35.4189C225.773 35.637 225.518 35.8096 225.222 35.9365C224.925 36.0602 224.602 36.1221 224.25 36.1221C223.856 36.1221 223.503 36.0488 223.19 35.9023C222.881 35.7559 222.619 35.5443 222.404 35.2676C222.189 34.9876 222.025 34.6458 221.911 34.2422C221.797 33.8385 221.74 33.3812 221.74 32.8701C221.74 32.2679 221.813 31.7227 221.96 31.2344C222.11 30.7428 222.321 30.3229 222.595 29.9746C222.871 29.6263 223.205 29.3577 223.596 29.1689C223.986 28.9769 224.426 28.8809 224.914 28.8809C225.454 28.8809 225.874 28.9443 226.174 29.0713V30.3604C225.819 30.1585 225.432 30.0576 225.012 30.0576C224.751 30.0576 224.515 30.1081 224.304 30.209C224.092 30.3099 223.91 30.4531 223.757 30.6387C223.607 30.8242 223.488 31.0488 223.4 31.3125C223.316 31.5729 223.27 31.8643 223.264 32.1865H223.293C223.625 31.7275 224.115 31.498 224.763 31.498C225.052 31.498 225.314 31.5501 225.549 31.6543C225.783 31.7585 225.983 31.9066 226.149 32.0986C226.315 32.2874 226.444 32.5153 226.535 32.7822C226.626 33.0492 226.672 33.3454 226.672 33.6709ZM225.163 33.7686C225.163 33.0166 224.855 32.6406 224.24 32.6406C224.1 32.6406 223.973 32.6667 223.859 32.7188C223.745 32.7708 223.648 32.8441 223.566 32.9385C223.485 33.0329 223.422 33.1452 223.376 33.2754C223.334 33.4023 223.312 33.5439 223.312 33.7002C223.312 33.8727 223.335 34.0339 223.381 34.1836C223.426 34.3333 223.49 34.4652 223.571 34.5791C223.656 34.6898 223.755 34.7777 223.869 34.8428C223.983 34.9079 224.11 34.9404 224.25 34.9404C224.39 34.9404 224.515 34.9128 224.626 34.8574C224.74 34.7988 224.836 34.7191 224.914 34.6182C224.995 34.514 225.057 34.3903 225.1 34.2471C225.142 34.1006 225.163 33.9411 225.163 33.7686ZM228.842 36.1221C228.588 36.1221 228.376 36.0439 228.207 35.8877C228.038 35.7314 227.953 35.5394 227.953 35.3115C227.953 35.0771 228.039 34.8851 228.212 34.7354C228.388 34.5856 228.606 34.5107 228.866 34.5107C229.13 34.5107 229.345 34.5872 229.511 34.7402C229.68 34.89 229.765 35.0804 229.765 35.3115C229.765 35.5492 229.678 35.7445 229.506 35.8975C229.337 36.0472 229.115 36.1221 228.842 36.1221ZM231.412 35.8193V34.501C231.891 34.7939 232.4 34.9404 232.94 34.9404C233.347 34.9404 233.665 34.8444 233.893 34.6523C234.124 34.457 234.239 34.1934 234.239 33.8613C234.239 33.168 233.749 32.8213 232.77 32.8213C232.408 32.8213 231.992 32.849 231.52 32.9043L231.783 28.998H235.489V30.2578H232.96L232.862 31.6592C233.113 31.6396 233.329 31.6299 233.512 31.6299C234.231 31.6299 234.794 31.8187 235.201 32.1963C235.608 32.5739 235.812 33.0817 235.812 33.7197C235.812 34.4261 235.569 35.0039 235.084 35.4531C234.599 35.8991 233.941 36.1221 233.111 36.1221C232.438 36.1221 231.871 36.0212 231.412 35.8193ZM239.07 32.5479C238.572 32.5479 238.17 32.39 237.864 32.0742C237.562 31.7585 237.41 31.3337 237.41 30.7998C237.41 30.2171 237.571 29.7549 237.894 29.4131C238.219 29.0713 238.652 28.9004 239.192 28.9004C239.71 28.9004 240.114 29.055 240.403 29.3643C240.696 29.6735 240.843 30.1081 240.843 30.668C240.843 31.2441 240.682 31.7015 240.359 32.04C240.037 32.3786 239.607 32.5479 239.07 32.5479ZM239.163 29.7598C238.688 29.7598 238.45 30.0902 238.45 30.751C238.45 31.376 238.676 31.6885 239.129 31.6885C239.591 31.6885 239.822 31.363 239.822 30.7119C239.822 30.0771 239.603 29.7598 239.163 29.7598ZM244.183 28.998L239.622 36H238.431L242.981 28.998H244.183ZM243.431 36.0977C242.933 36.0977 242.531 35.9398 242.225 35.624C241.922 35.3083 241.771 34.8835 241.771 34.3496C241.771 33.7669 241.932 33.3047 242.254 32.9629C242.579 32.6211 243.012 32.4502 243.553 32.4502C244.074 32.4502 244.479 32.6032 244.769 32.9092C245.058 33.2152 245.203 33.6481 245.203 34.208C245.203 34.7842 245.042 35.2432 244.72 35.585C244.397 35.9268 243.968 36.0977 243.431 36.0977ZM243.509 33.3096C243.037 33.3096 242.801 33.64 242.801 34.3008C242.801 34.9258 243.03 35.2383 243.489 35.2383C243.951 35.2383 244.183 34.9128 244.183 34.2617C244.183 33.959 244.121 33.7246 243.997 33.5586C243.873 33.3926 243.711 33.3096 243.509 33.3096Z" fill="#52FF8D"/>
<defs>
<filter id="filter0_d_351_30021" x="0" y="0" width="275" height="86" filterUnits="userSpaceOnUse" color-interpolation-filters="sRGB">
<feFlood flood-opacity="0" result="BackgroundImageFix"/>
<feColorMatrix in="SourceAlpha" type="matrix" values="0 0 0 0 0 0 0 0 0 0 0 0 0 0 0 0 0 0 127 0" result="hardAlpha"/>
<feOffset/>
<feGaussianBlur stdDeviation="7.5"/>
<feComposite in2="hardAlpha" operator="out"/>
<feColorMatrix type="matrix" values="0 0 0 0 0 0 0 0 0 0.470588 0 0 0 0 0.831373 0 0 0 1 0"/>
<feBlend mode="normal" in2="BackgroundImageFix" result="effect1_dropShadow_351_30021"/>
<feBlend mode="normal" in="SourceGraphic" in2="effect1_dropShadow_351_30021" result="shape"/>
</filter>
<clipPath id="clip0_351_30021">
<rect width="11.5869" height="18.6" fill="white" transform="translate(37.92 32.2)"/>
</clipPath>
<clipPath id="clip1_351_30021">
<rect width="11" height="7" fill="white" transform="translate(201 28.5)"/>
</clipPath>
</defs>
</svg>
