<svg width="106" height="36" viewBox="0 0 106 36" fill="none" xmlns="http://www.w3.org/2000/svg">
<path d="M0 15C0 6.71573 6.71573 0 15 0H91C99.2843 0 106 6.71573 106 15V21C106 29.2843 99.2843 36 91 36H15C6.71573 36 0 29.2843 0 21V15Z" fill="#252E54"/>
<path d="M19.7979 16.6484V17.9082H21.8779V19.5586H19.7979V22H17.6885V14.998H22.0781V16.6484H19.7979ZM26.0986 22V14.998H28.208V22H26.0986ZM32.585 22V14.998H34.6943V20.3496H37.1064V22H32.585ZM44.5352 16.6484V22H42.416V16.6484H40.458V14.998H46.5176V16.6484H44.5352ZM50.3623 22V14.998H54.7227V16.6484H52.4717V17.6689H54.5859V19.3193H52.4717V20.3496H54.8838V22H50.3623ZM62.5127 22L61.9902 20.4912C61.8893 20.195 61.7575 19.9622 61.5947 19.793C61.4352 19.6237 61.2611 19.5391 61.0723 19.5391H60.9893V22H58.8799V14.998H61.6826C62.6624 14.998 63.3851 15.1592 63.8506 15.4814C64.3193 15.8005 64.5537 16.2806 64.5537 16.9219C64.5537 17.4036 64.417 17.8073 64.1436 18.1328C63.8734 18.4583 63.4697 18.6943 62.9326 18.8408V18.8604C63.2288 18.9515 63.4746 19.0996 63.6699 19.3047C63.8685 19.5098 64.0459 19.8141 64.2021 20.2178L64.8906 22H62.5127ZM62.3125 17.2197C62.3125 16.9854 62.2409 16.7998 62.0977 16.6631C61.9544 16.5264 61.7298 16.458 61.4238 16.458H60.9893V18.0596H61.3701C61.6533 18.0596 61.8812 17.9798 62.0537 17.8203C62.2262 17.6608 62.3125 17.4606 62.3125 17.2197Z" fill="white"/>
<g clip-path="url(#clip0_298_30482)">
<path d="M79.6621 25.5C79.3137 25.3794 79.1861 25.1342 79.1882 24.7695C79.1976 22.9488 79.1882 21.1282 79.1947 19.3075C79.1976 18.5979 78.9352 18.0244 78.402 17.5574C77.5275 16.7928 76.6465 16.0311 75.7985 15.2362C74.6223 14.1337 74.0385 12.7539 74.0002 11.1446C73.9911 10.7488 74.2374 10.5 74.6324 10.5C79.2183 10.5 83.8042 10.5 88.3899 10.5C88.6362 10.5 88.8265 10.5929 88.9496 10.8088C88.975 10.8556 88.9897 10.9074 88.9926 10.9605C89.0394 11.7431 88.9013 12.4948 88.6076 13.2197C88.2586 14.0813 87.726 14.8113 87.0288 15.4253C86.2041 16.1519 85.3817 16.8811 84.5617 17.613C84.0695 18.05 83.8273 18.5973 83.8291 19.256C83.8321 20.3441 83.8268 21.4322 83.8324 22.5204C83.8338 22.7953 83.729 22.9926 83.4995 23.1441C82.3873 23.8793 81.2792 24.6201 80.1681 25.3571C80.0807 25.4089 79.9905 25.4561 79.898 25.4985L79.6621 25.5ZM75.2111 11.6796C75.3687 12.7559 75.8203 13.6693 76.6114 14.3951C77.468 15.1815 78.3458 15.9447 79.2162 16.716C79.9935 17.4051 80.3708 18.2673 80.3673 19.304C80.3625 20.7491 80.3673 22.1942 80.3673 23.6393V23.8099C80.4109 23.7855 80.4321 23.7752 80.4515 23.7623C81.1584 23.2917 81.8674 22.8212 82.5723 22.3454C82.6191 22.3136 82.6533 22.2277 82.6536 22.1689C82.6587 21.2083 82.6597 20.2464 82.6565 19.2834C82.653 18.2574 83.0344 17.4038 83.8008 16.7225C84.4881 16.1132 85.1754 15.5035 85.8627 14.8936C86.2609 14.5407 86.6683 14.1969 86.982 13.7584C87.4259 13.1447 87.7104 12.4306 87.81 11.6802L75.2111 11.6796Z" fill="white"/>
</g>
<defs>
<clipPath id="clip0_298_30482">
<rect width="15" height="15" fill="white" transform="translate(74 10.5)"/>
</clipPath>
</defs>
</svg>
