<svg width="103" height="36" viewBox="0 0 103 36" fill="none" xmlns="http://www.w3.org/2000/svg">
<rect x="1" y="1" width="101" height="34" rx="14" fill="#252E54" stroke="white" stroke-width="2"/>
<path d="M19.7979 16.6484V17.9082H21.8779V19.5586H19.7979V22H17.6885V14.998H22.0781V16.6484H19.7979ZM26.0986 22V14.998H28.208V22H26.0986ZM32.585 22V14.998H34.6943V20.3496H37.1064V22H32.585ZM44.5352 16.6484V22H42.416V16.6484H40.458V14.998H46.5176V16.6484H44.5352ZM50.3623 22V14.998H54.7227V16.6484H52.4717V17.6689H54.5859V19.3193H52.4717V20.3496H54.8838V22H50.3623ZM62.5127 22L61.9902 20.4912C61.8893 20.195 61.7575 19.9622 61.5947 19.793C61.4352 19.6237 61.2611 19.5391 61.0723 19.5391H60.9893V22H58.8799V14.998H61.6826C62.6624 14.998 63.3851 15.1592 63.8506 15.4814C64.3193 15.8005 64.5537 16.2806 64.5537 16.9219C64.5537 17.4036 64.417 17.8073 64.1436 18.1328C63.8734 18.4583 63.4697 18.6943 62.9326 18.8408V18.8604C63.2288 18.9515 63.4746 19.0996 63.6699 19.3047C63.8685 19.5098 64.0459 19.8141 64.2021 20.2178L64.8906 22H62.5127ZM62.3125 17.2197C62.3125 16.9854 62.2409 16.7998 62.0977 16.6631C61.9544 16.5264 61.7298 16.458 61.4238 16.458H60.9893V18.0596H61.3701C61.6533 18.0596 61.8812 17.9798 62.0537 17.8203C62.2262 17.6608 62.3125 17.4606 62.3125 17.2197Z" fill="white"/>
<g clip-path="url(#clip0_572_33821)">
<path d="M76.6619 25.4991C76.3134 25.3788 76.1859 25.1332 76.188 24.7689C76.1974 22.9482 76.188 21.1272 76.1947 19.3066C76.1974 18.597 75.935 18.0238 75.4018 17.5565C74.5273 16.7919 73.6463 16.0302 72.7986 15.2356C71.6221 14.1328 71.0383 12.7529 71.0018 11.1437C70.9909 10.7488 71.2372 10.5009 71.6322 10.5009C76.2173 10.5009 80.8032 10.5009 85.3897 10.5009C85.636 10.5009 85.8263 10.5938 85.9479 10.8096C85.9733 10.8562 85.9881 10.9077 85.9915 10.9605C86.038 11.7431 85.8999 12.4947 85.6062 13.2197C85.2572 14.0813 84.7246 14.8112 84.0274 15.4253C83.2027 16.1522 82.3803 16.8815 81.5603 17.613C81.0681 18.05 80.8263 18.5973 80.8277 19.256C80.8307 20.3441 80.8254 21.4322 80.831 22.5203C80.831 22.7956 80.7276 22.9926 80.4981 23.1444C79.3859 23.8796 78.2778 24.6204 77.1668 25.357C77.0794 25.4089 76.9893 25.4562 76.897 25.4985L76.6619 25.4991ZM72.2109 11.6798C72.3685 12.7559 72.8201 13.6693 73.6112 14.3954C74.4678 15.1815 75.3456 15.9449 76.216 16.716C76.9936 17.405 77.3706 18.2676 77.3671 19.3039C77.3623 20.7491 77.3671 22.1942 77.3671 23.6396V23.8099C77.4107 23.7855 77.4319 23.7752 77.4513 23.7622C78.1582 23.2917 78.8672 22.8212 79.5721 22.3453C79.6189 22.3136 79.6531 22.2277 79.6534 22.1689C79.6583 21.2082 79.6593 20.2465 79.6563 19.2836C79.6528 18.2573 80.0342 17.4037 80.8006 16.7228L82.8625 14.8939C83.2607 14.541 83.6681 14.1969 83.9818 13.7584C84.4257 13.1448 84.7103 12.4308 84.8101 11.6804L72.2109 11.6798Z" fill="white"/>
<path d="M72.2109 11.6798H84.8065C84.7067 12.4302 84.4222 13.1442 83.9782 13.7578C83.6654 14.1963 83.2581 14.5398 82.859 14.8933L80.7971 16.7222C80.0287 17.4033 79.6473 18.2569 79.6528 19.283C79.6561 20.2437 79.6551 21.2055 79.6498 22.1683C79.6498 22.2289 79.6154 22.3139 79.5685 22.3447C78.866 22.8229 78.1564 23.2917 77.4495 23.764C77.4301 23.7769 77.4089 23.7872 77.3653 23.8116V23.6413C77.3653 22.1959 77.3617 20.7508 77.3653 19.3057C77.3688 18.269 76.9918 17.4065 76.2142 16.7177C75.3438 15.9467 74.466 15.1832 73.6095 14.3971C72.8201 13.6693 72.3685 12.7559 72.2109 11.6798Z" fill="white"/>
</g>
<defs>
<clipPath id="clip0_572_33821">
<rect width="15" height="15" fill="white" transform="translate(71 10.5)"/>
</clipPath>
</defs>
</svg>
