<svg width="117" height="36" viewBox="0 0 117 36" fill="none" xmlns="http://www.w3.org/2000/svg">
<rect x="1" y="1" width="115" height="34" rx="14" fill="#252E54" stroke="white" stroke-width="2"/>
<path d="M24.2285 16.6484V22H22.1094V16.6484H20.1514V14.998H26.2109V16.6484H24.2285ZM33.6348 19.5684V22H31.5254V19.5977L29.3672 14.998H31.7891L32.5459 17.2002C32.598 17.3499 32.6338 17.4801 32.6533 17.5908C32.6761 17.7015 32.7005 17.8138 32.7266 17.9277H32.7461C32.7884 17.6315 32.8356 17.402 32.8877 17.2393L33.6348 14.998H35.8662L33.6348 19.5684ZM45.2822 17.3076C45.2822 17.7861 45.1602 18.2109 44.916 18.582C44.6751 18.9531 44.3301 19.2412 43.8809 19.4463C43.4316 19.6481 42.9092 19.749 42.3135 19.749H41.6689V22H39.5596V14.998H42.4307C43.417 14.998 44.138 15.1852 44.5938 15.5596C45.0527 15.9339 45.2822 16.5166 45.2822 17.3076ZM43.0508 17.3809C43.0508 17.0944 42.9678 16.8779 42.8018 16.7314C42.6357 16.585 42.3916 16.5117 42.0693 16.5117H41.6689V18.2402H42.1426C42.748 18.2402 43.0508 17.9538 43.0508 17.3809ZM49.1221 22V14.998H53.4824V16.6484H51.2314V17.6689H53.3457V19.3193H51.2314V20.3496H53.6436V22H49.1221ZM64.0527 18.5479C63.7988 18.5479 63.5872 18.4714 63.418 18.3184C63.2487 18.1621 63.1641 17.9701 63.1641 17.7422C63.1641 17.5078 63.2503 17.3158 63.4229 17.166C63.5986 17.0163 63.8167 16.9414 64.0771 16.9414C64.3408 16.9414 64.5557 17.0179 64.7217 17.1709C64.891 17.3206 64.9756 17.5111 64.9756 17.7422C64.9756 17.9798 64.8893 18.1735 64.7168 18.3232C64.5475 18.473 64.3262 18.5479 64.0527 18.5479ZM64.0527 22.1221C63.7988 22.1221 63.5872 22.0439 63.418 21.8877C63.2487 21.7314 63.1641 21.5394 63.1641 21.3115C63.1641 21.0771 63.2503 20.8851 63.4229 20.7354C63.5986 20.5856 63.8167 20.5107 64.0771 20.5107C64.3408 20.5107 64.5557 20.5872 64.7217 20.7402C64.891 20.89 64.9756 21.0804 64.9756 21.3115C64.9756 21.5492 64.8893 21.7445 64.7168 21.8975C64.5475 22.0472 64.3262 22.1221 64.0527 22.1221ZM80.8096 22H79.5352L78.9053 20.2178H76.1514L75.5459 22H74.2764L76.8984 14.998H78.207L80.8096 22ZM78.5977 19.2705L77.626 16.4775C77.5967 16.3864 77.5658 16.2399 77.5332 16.0381H77.5137C77.4844 16.2236 77.4518 16.3701 77.416 16.4775L76.4541 19.2705H78.5977ZM88.6533 22H84.7764V14.998H85.9385V21.0186H88.6533V22ZM96.5459 22H92.6689V14.998H93.8311V21.0186H96.5459V22Z" fill="white"/>
</svg>
