<svg width="117" height="36" viewBox="0 0 117 36" fill="none" xmlns="http://www.w3.org/2000/svg">
<path d="M0 15C0 6.71573 6.71573 0 15 0H102C110.284 0 117 6.71573 117 15V21C117 29.2843 110.284 36 102 36H15C6.71573 36 0 29.2843 0 21V15Z" fill="#5E6B8D"/>
<path d="M24.3799 16.6484V22H22.2607V16.6484H20.3027V14.998H26.3623V16.6484H24.3799ZM33.7861 19.5684V22H31.6768V19.5977L29.5186 14.998H31.9404L32.6973 17.2002C32.7493 17.3499 32.7852 17.4801 32.8047 17.5908C32.8275 17.7015 32.8519 17.8138 32.8779 17.9277H32.8975C32.9398 17.6315 32.987 17.402 33.0391 17.2393L33.7861 14.998H36.0176L33.7861 19.5684ZM45.4336 17.3076C45.4336 17.7861 45.3115 18.2109 45.0674 18.582C44.8265 18.9531 44.4814 19.2412 44.0322 19.4463C43.583 19.6481 43.0605 19.749 42.4648 19.749H41.8203V22H39.7109V14.998H42.582C43.5684 14.998 44.2894 15.1852 44.7451 15.5596C45.2041 15.9339 45.4336 16.5166 45.4336 17.3076ZM43.2021 17.3809C43.2021 17.0944 43.1191 16.8779 42.9531 16.7314C42.7871 16.585 42.543 16.5117 42.2207 16.5117H41.8203V18.2402H42.2939C42.8994 18.2402 43.2021 17.9538 43.2021 17.3809ZM49.2734 22V14.998H53.6338V16.6484H51.3828V17.6689H53.4971V19.3193H51.3828V20.3496H53.7949V22H49.2734ZM64.2041 18.5479C63.9502 18.5479 63.7386 18.4714 63.5693 18.3184C63.4001 18.1621 63.3154 17.9701 63.3154 17.7422C63.3154 17.5078 63.4017 17.3158 63.5742 17.166C63.75 17.0163 63.9681 16.9414 64.2285 16.9414C64.4922 16.9414 64.707 17.0179 64.873 17.1709C65.0423 17.3206 65.127 17.5111 65.127 17.7422C65.127 17.9798 65.0407 18.1735 64.8682 18.3232C64.6989 18.473 64.4775 18.5479 64.2041 18.5479ZM64.2041 22.1221C63.9502 22.1221 63.7386 22.0439 63.5693 21.8877C63.4001 21.7314 63.3154 21.5394 63.3154 21.3115C63.3154 21.0771 63.4017 20.8851 63.5742 20.7354C63.75 20.5856 63.9681 20.5107 64.2285 20.5107C64.4922 20.5107 64.707 20.5872 64.873 20.7402C65.0423 20.89 65.127 21.0804 65.127 21.3115C65.127 21.5492 65.0407 21.7445 64.8682 21.8975C64.6989 22.0472 64.4775 22.1221 64.2041 22.1221ZM80.9609 22H79.6865L79.0566 20.2178H76.3027L75.6973 22H74.4277L77.0498 14.998H78.3584L80.9609 22ZM78.749 19.2705L77.7773 16.4775C77.748 16.3864 77.7171 16.2399 77.6846 16.0381H77.665C77.6357 16.2236 77.6032 16.3701 77.5674 16.4775L76.6055 19.2705H78.749ZM88.8047 22H84.9277V14.998H86.0898V21.0186H88.8047V22ZM96.6973 22H92.8203V14.998H93.9824V21.0186H96.6973V22Z" fill="white"/>
</svg>
