<svg width="11" height="8" viewBox="0 0 11 8" fill="none" xmlns="http://www.w3.org/2000/svg">
<g clip-path="url(#clip0_339_30797)">
<path d="M6.11342 4.87482L9.03442 1.83081C9.01588 1.80892 8.99086 1.77576 8.96244 1.74582C8.79932 1.57414 8.63579 1.40374 8.47184 1.23463C8.38534 1.14481 8.32664 1.04759 8.37422 0.912712C8.4218 0.77783 8.51231 0.736303 8.64052 0.723105C9.32513 0.652284 10.0091 0.575991 10.6937 0.502273C10.8822 0.481992 11.0132 0.598847 10.9989 0.796501C10.9739 1.15061 10.9372 1.50664 10.901 1.86139C10.8649 2.21614 10.8253 2.5696 10.7938 2.9237C10.7818 3.06148 10.7487 3.18123 10.614 3.23081C10.4793 3.28038 10.3774 3.22727 10.2841 3.12361C10.1339 2.95686 9.97729 2.79687 9.81387 2.624C9.76876 2.66682 9.73169 2.69965 9.6974 2.73506C8.66153 3.81411 7.62072 4.88802 6.59413 5.97673C6.34389 6.24198 5.95617 6.25389 5.70099 5.97479C5.16931 5.3931 4.61508 4.83458 4.06981 4.26672C4.03891 4.23292 4.00369 4.20073 3.96353 4.16082C3.92213 4.20009 3.88475 4.23292 3.85015 4.2693C2.8803 5.28097 1.91034 6.29231 0.940279 7.30333C0.776233 7.47491 0.586546 7.5438 0.362876 7.46815C0.280202 7.43971 0.20555 7.39043 0.145553 7.32469C0.0855556 7.25895 0.0420705 7.17879 0.018961 7.09132C-0.00414836 7.00386 -0.00616643 6.9118 0.0130861 6.82332C0.0323387 6.73485 0.0722658 6.6527 0.12932 6.58418C0.156815 6.55199 0.187709 6.51979 0.217676 6.4876C1.31934 5.34181 2.42029 4.19515 3.52052 3.04764C3.81277 2.74343 4.10966 2.74408 4.40377 3.05054C4.94667 3.6156 5.48896 4.18088 6.03063 4.74638C6.06235 4.78614 6.09009 4.82918 6.11342 4.87482Z" fill="#52FF8D"/>
</g>
<defs>
<clipPath id="clip0_339_30797">
<rect width="11" height="7" fill="white" transform="translate(0 0.5)"/>
</clipPath>
</defs>
</svg>
