<svg width="9" height="7" viewBox="0 0 9 7" fill="none" xmlns="http://www.w3.org/2000/svg">
<path d="M4.1936 5.98177L1.36002 1.96621C1.18473 1.7178 1.36239 1.375 1.66642 1.375L7.33358 1.375C7.63762 1.375 7.81527 1.7178 7.63998 1.96621L4.8064 5.98177C4.657 6.1935 4.34301 6.1935 4.1936 5.98177Z" fill="white"/>
<path d="M4.1936 5.98177L1.36002 1.96621C1.18473 1.7178 1.36239 1.375 1.66642 1.375L7.33358 1.375C7.63762 1.375 7.81527 1.7178 7.63998 1.96621L4.8064 5.98177C4.657 6.1935 4.34301 6.1935 4.1936 5.98177Z" stroke="url(#paint0_linear_298_30967)" stroke-width="1.25"/>
<path d="M4.1936 5.98177L1.36002 1.96621C1.18473 1.7178 1.36239 1.375 1.66642 1.375L7.33358 1.375C7.63762 1.375 7.81527 1.7178 7.63998 1.96621L4.8064 5.98177C4.657 6.1935 4.34301 6.1935 4.1936 5.98177Z" stroke="white" stroke-width="1.25"/>
<defs>
<linearGradient id="paint0_linear_298_30967" x1="-70.6667" y1="3" x2="36.0333" y2="3" gradientUnits="userSpaceOnUse">
<stop stop-color="#F094BB"/>
<stop offset="0.255983" stop-color="#A05BD5"/>
<stop offset="1" stop-color="#0078D4"/>
</linearGradient>
</defs>
</svg>
