<svg width="9" height="7" viewBox="0 0 9 7" fill="none" xmlns="http://www.w3.org/2000/svg">
<path d="M4.8064 1.01823L7.63998 5.03379C7.81527 5.2822 7.63761 5.625 7.33358 5.625L1.66641 5.625C1.36238 5.625 1.18473 5.2822 1.36002 5.03379L4.1936 1.01823C4.343 0.806506 4.65699 0.806506 4.8064 1.01823Z" fill="white"/>
<path d="M4.8064 1.01823L7.63998 5.03379C7.81527 5.2822 7.63761 5.625 7.33358 5.625L1.66641 5.625C1.36238 5.625 1.18473 5.2822 1.36002 5.03379L4.1936 1.01823C4.343 0.806506 4.65699 0.806506 4.8064 1.01823Z" stroke="url(#paint0_linear_545_33829)" stroke-width="1.25"/>
<path d="M4.8064 1.01823L7.63998 5.03379C7.81527 5.2822 7.63761 5.625 7.33358 5.625L1.66641 5.625C1.36238 5.625 1.18473 5.2822 1.36002 5.03379L4.1936 1.01823C4.343 0.806506 4.65699 0.806506 4.8064 1.01823Z" stroke="white" stroke-width="1.25"/>
<defs>
<linearGradient id="paint0_linear_545_33829" x1="79.6667" y1="4.00002" x2="-27.0333" y2="3.99999" gradientUnits="userSpaceOnUse">
<stop stop-color="#F094BB"/>
<stop offset="0.255983" stop-color="#A05BD5"/>
<stop offset="1" stop-color="#0078D4"/>
</linearGradient>
</defs>
</svg>
