<svg width="15" height="16" viewBox="0 0 15 16" fill="none" xmlns="http://www.w3.org/2000/svg">
<g clip-path="url(#clip0_298_30512)">
<path d="M5.6621 15.5C5.31365 15.3794 5.18611 15.1342 5.18817 14.7695C5.1976 12.9488 5.18817 11.1282 5.19465 9.30749C5.1976 8.59787 4.93515 8.02441 4.40201 7.5574C3.52749 6.79279 2.64649 6.03111 1.79848 5.23621C0.622337 4.13369 0.0385371 2.75385 0.000245477 1.14463C-0.0088856 0.748794 0.237359 0.5 0.632352 0.5C5.21831 0.5 9.80418 0.5 14.3899 0.5C14.6362 0.5 14.8265 0.59293 14.9496 0.808787C14.975 0.855567 14.9897 0.907397 14.9926 0.960534C15.0394 1.74309 14.9013 2.49477 14.6076 3.21968C14.2586 4.08134 13.726 4.81126 13.0288 5.4253C12.2041 6.15188 11.3817 6.88111 10.5617 7.61299C10.0695 8.04999 9.82735 8.59728 9.82912 9.25603C9.83206 10.3441 9.82676 11.4322 9.83236 12.5204C9.83383 12.7953 9.72897 12.9926 9.49951 13.1441C8.38729 13.8793 7.27919 14.6201 6.16814 15.3571C6.08065 15.4089 5.9905 15.4561 5.89804 15.4985L5.6621 15.5ZM1.21114 1.67957C1.36873 2.75591 1.82028 3.66933 2.61144 4.39513C3.46799 5.18151 4.34576 5.94465 5.21615 6.71603C5.99347 7.40507 6.37079 8.26732 6.36726 9.30396C6.36255 10.7491 6.36726 12.1942 6.36726 13.6393V13.8099C6.41085 13.7855 6.43206 13.7752 6.4515 13.7623C7.15842 13.2917 7.86741 12.8212 8.57227 12.3454C8.6191 12.3136 8.65327 12.2277 8.65356 12.1689C8.65867 11.2083 8.65965 10.2464 8.65651 9.28338C8.65297 8.25742 9.03442 7.4038 9.80084 6.7225C10.4881 6.11316 11.1754 5.50353 11.8627 4.8936C12.2609 4.5407 12.6683 4.19692 12.982 3.75844C13.4259 3.14474 13.7104 2.43064 13.81 1.68016L1.21114 1.67957Z" fill="#565656"/>
</g>
<defs>
<clipPath id="clip0_298_30512">
<rect width="15" height="15" fill="white" transform="translate(0 0.5)"/>
</clipPath>
</defs>
</svg>
