<svg width="15" height="16" viewBox="0 0 15 16" fill="none" xmlns="http://www.w3.org/2000/svg">
<g clip-path="url(#clip0_298_30553)">
<path d="M5.6619 15.4991C5.31345 15.3788 5.18591 15.1332 5.18797 14.7689C5.1974 12.9482 5.18797 11.1272 5.19475 9.30658C5.1974 8.59696 4.93495 8.02379 4.40181 7.55649C3.52729 6.79188 2.64629 6.0302 1.79857 5.23559C0.622137 4.13278 0.0383366 2.75294 0.00181231 1.14372C-0.00908608 0.748766 0.237159 0.500854 0.632151 0.500854C5.21733 0.500854 9.80319 0.500854 14.3897 0.500854C14.636 0.500854 14.8263 0.593785 14.9479 0.809642C14.9733 0.856165 14.9881 0.907651 14.9915 0.960506C15.038 1.74306 14.8999 2.49474 14.6062 3.21965C14.2572 4.08131 13.7246 4.81123 13.0274 5.42527C12.2027 6.15225 11.3803 6.88147 10.5603 7.61296C10.0681 8.04996 9.82626 8.59725 9.82774 9.256C9.83068 10.3441 9.82538 11.4322 9.83098 12.5203C9.83098 12.7956 9.72759 12.9926 9.49813 13.1444C8.38591 13.8796 7.27781 14.6204 6.16676 15.357C6.07941 15.4089 5.98934 15.4562 5.89695 15.4985L5.6619 15.4991ZM1.21094 1.67983C1.36853 2.75588 1.82008 3.6693 2.61124 4.39539C3.46779 5.18148 4.34555 5.94492 5.21595 6.716C5.99357 7.40504 6.37059 8.26758 6.36706 9.30393C6.36234 10.7491 6.36706 12.1942 6.36706 13.6396V13.8099C6.41065 13.7855 6.43186 13.7752 6.4513 13.7622C7.15822 13.2917 7.86721 12.8212 8.57207 12.3453C8.6189 12.3136 8.65307 12.2277 8.65336 12.1689C8.65827 11.2082 8.65925 10.2465 8.65631 9.28364C8.65277 8.25729 9.03422 7.40367 9.80064 6.72277L11.8625 4.89387C12.2607 4.54097 12.6681 4.19689 12.9818 3.75841C13.4257 3.14477 13.7103 2.4308 13.8101 1.68042L1.21094 1.67983Z" fill="white"/>
<path d="M1.21094 1.67987H13.8065C13.7067 2.43025 13.4222 3.14422 12.9782 3.75786C12.6654 4.19634 12.2581 4.53983 11.859 4.89332L9.7971 6.72222C9.02871 7.40331 8.64727 8.25694 8.65277 9.28309C8.65611 10.2438 8.65512 11.2055 8.64982 12.1683C8.64982 12.2289 8.61536 12.3139 8.56853 12.3448C7.86602 12.823 7.15645 13.2917 6.44953 13.764C6.43009 13.777 6.40888 13.7873 6.36528 13.8117V13.6414C6.36528 12.196 6.36175 10.7509 6.36528 9.30574C6.36882 8.26909 5.99179 7.40655 5.21418 6.71781C4.34378 5.94672 3.46602 5.18328 2.60947 4.3972C1.82007 3.66934 1.36852 2.75592 1.21094 1.67987Z" fill="white"/>
</g>
<defs>
<clipPath id="clip0_298_30553">
<rect width="15" height="15" fill="white" transform="translate(0 0.5)"/>
</clipPath>
</defs>
</svg>
